<?xml version="1.0" encoding="UTF-8"?>
<svg id="Layer_1" data-name="Layer 1" xmlns="http://www.w3.org/2000/svg" viewBox="0 0 181.46 204.34">
  <defs>
    <style>
      .cls-1, .cls-2, .cls-3, .cls-4 {
        stroke: #262c97;
      }

      .cls-1, .cls-2, .cls-3, .cls-4, .cls-5 {
        stroke-width: .5px;
      }

      .cls-1, .cls-3, .cls-4, .cls-5 {
        stroke-miterlimit: 10;
      }

      .cls-1, .cls-6 {
        fill: #ffc7e0;
      }

      .cls-2 {
        stroke-linejoin: round;
      }

      .cls-2, .cls-3, .cls-4, .cls-5 {
        fill: none;
      }

      .cls-2, .cls-3, .cls-5 {
        stroke-linecap: round;
      }

      .cls-7 {
        fill: #fff;
      }

      .cls-8 {
        fill: #3752a5;
      }

      .cls-9 {
        fill: #4f6abd;
      }

      .cls-10 {
        opacity: .41;
      }

      .cls-10, .cls-11 {
        fill: #e85680;
      }

      .cls-12 {
        fill: #68283d;
      }

      .cls-5 {
        stroke: #68283d;
      }

      .cls-13 {
        fill: #262c97;
      }
    </style>
  </defs>
  <ellipse class="cls-10" cx="90.73" cy="198.89" rx="90.73" ry="5.45"/>
  <path class="cls-11" d="M53.46,69.9c-6.96,5.5,2.79,28.32,13.06,36.9,10.27,8.58,19.99-8.3,19.99-8.3l-33.05-28.6Z"/>
  <path class="cls-1" d="M122.05,109.12c-.82,3.79-1.43,5.83-3.65,8.22-2.22,2.4-10.19-2.11-10.22-2.22-.04-.11-.79-8-.36-8.33.43-.32,7.05-2.97,7.05-2.97l7.18,5.29Z"/>
  <g>
    <g>
      <polygon class="cls-1" points="46.11 139.76 39.1 149.99 47.26 154.63 56.62 144.26 49.47 140.22 46.11 139.76"/>
      <g>
        <path class="cls-8" d="M70.26,99.8c-9.21,2.85-25.47,40.75-25.47,40.75,1.08,3.54,4.43,5.96,8.91,7.82,0,0,18.36-20.26,23.79-26.98,5.43-6.72,0-22.45,0-22.45l-7.24.87Z"/>
        <path class="cls-13" d="M68.06,109.23c-8.44,17.73-10.08,26.46-11.19,35.63,5.5-6.1,16.61-18.5,20.63-23.48,5.43-6.72-2.1-24.17-2.1-24.17,0,0-3.75,4.47-7.34,12.02Z"/>
      </g>
      <g>
        <path class="cls-11" d="M48.14,153.23c.79,3.67-.25,7.3-2.71,8.66l-24.27-19.15s3.69-4.3,8.44-1.67c6.79,3.77,10.73,3,10.73,3l1.62,2.86-1.81.86c2.37,3.12,4.97,5.26,8.01,5.43Z"/>
        <path class="cls-7" d="M18.48,140.75l27.3,22.13,2.09-3.45-19.93-14.69,1.4-3.97c-5.09-2.79-9.49-3.79-10.85-.03Z"/>
        <g>
          <path class="cls-4" d="M31.08,145.34c.78-.85,1.23-2.03,1.36-3.52"/>
          <path class="cls-4" d="M34.18,147.02c.91-1.49,1.35-2.99.94-4.52"/>
          <path class="cls-4" d="M37.81,147.9c.72-1.55.87-3.17.33-4.88"/>
        </g>
      </g>
    </g>
    <g>
      <path class="cls-12" d="M92.59,31.93c3.5,13.08,1.5,16.75,13.23,16.27,11.73-.47,3.36-15.03,3.36-15.03l-16.59-1.24Z"/>
      <path class="cls-1" d="M98.86,32.43l-2.46,12.19s5.6-.37,6.27.3-10.2,15.18-16.02,10.78c-5.82-4.4-2.48-15.93-2.48-15.93l4.2,2.29,3.14-7.34,7.34-2.29Z"/>
      <g>
        <path class="cls-6" d="M94.4,21.71c-6.24.22-7.91,7.32-7.14,12.93.74,5.31,6.4,5.4,10.45-.78,1.68-2.57,1.64-7.18.24-9.23-1.39-2.05-3.56-2.92-3.56-2.92Z"/>
        <path class="cls-4" d="M97.72,33.86c1.68-2.57,1.64-7.18.24-9.23-1.39-2.05-3.25-2.64-3.25-2.64-6.24.22-8.22,7.04-7.45,12.65.55,3.99,3.88,5.03,7.21,2.7"/>
        <path class="cls-3" d="M93.21,29.02c.85,1.49,2.48,2.04,3.72,1.37"/>
        <path class="cls-3" d="M90.87,28.73c-1.65.43-3.19-.34-3.58-1.7"/>
      </g>
      <g>
        <path class="cls-12" d="M94.28,22.27c.22,2.97,2.12,4.82,4.84,6.12,0,0-2.09,8.8,4.88,18.14,6.97,9.35,25.84,13.78,35.71,2.34,5-5.79,3.1-17.11-12.99-18.3-8-.59-16.45-3.6-19.66-7.49-9.48-11.49-19.43-5.43-18.64,3.08,2.11-.66,4.1-1.78,5.86-3.91Z"/>
        <path class="cls-5" d="M101,40.51c4.43,10.61,11.39,15.95,23.02,16.23s15.54-7.82,16.49-10.68"/>
        <path class="cls-5" d="M94.28,22.27c-1.29,3.68,2.34,6.23,4.84,6.12"/>
        <path class="cls-5" d="M88.42,26.18c.67-14.05,12.58-12.05,19.12-4.7,6.12,6.88,17.83,6.1,17.83,6.1"/>
      </g>
      <g>
        <path class="cls-6" d="M97.58,32.34s3.31,1.9,5.93-.04c2.63-1.95.2-3.98-1.27-4.25-1.78-.34-3.44.85-3.44.85l-1.22,3.45Z"/>
        <path class="cls-4" d="M97.58,32.34s3.31,1.9,5.93-.04c2.63-1.95.2-3.98-1.27-4.25-1.78-.34-3.44.85-3.44.85"/>
        <line class="cls-1" x1="104" y1="29" x2="99.76" y2="29.81"/>
      </g>
      <g>
        <path class="cls-1" d="M41.75,16.66c-3-2.08-14.87-12.68-17.8-15.47s-4.43.93-1.36,7.33c3.07,6.4,5.72,9.04,5.72,9.04,0,0-6.51-6.29-6.58-5.15-.07,1.14,11.56,12.47,13.2,13.39,1.64.93,6.82-9.15,6.82-9.15Z"/>
        <path class="cls-4" d="M37.17,13.77c-3.79-1.5-9.15-6.51-9.94-6.36-.79.14,2.93,8.22,5.65,10.58"/>
        <path class="cls-4" d="M28.52,13.7c-3.22-3.29-7.59-11.83-7.59-11.83"/>
        <path class="cls-4" d="M21.5.52c1.38,2.1,5.74,6.89,5.74,6.89"/>
      </g>
      <g>
        <g>
          <path class="cls-7" d="M97.95,44.28s12.08-.55,13.94,5.74c1.86,6.29-20.95,19.16-20.95,19.16l-17.95.43-3.41-18.96c-14.49-6.56-26.95-14.58-35.77-25.23,1.46-3.57,4.27-6.63,7.36-9.58,19.73,14.73,31.88,16.31,46.14,25.28-5.38,12.59,4.48,16.83,10.63,3.15Z"/>
          <path class="cls-4" d="M86.32,40.51c-1.24,2.27-4.05,10.61,1.01,13.28,5.05,2.67,11.06-6.96,12.06-9.51"/>
        </g>
        <path class="cls-13" d="M97.58,57.32c-6.73,6.1-22.17,7.31-22.17,7.31l-1.33,5.84,14.3.67,13.44-8.96-4.24-4.86Z"/>
      </g>
    </g>
  </g>
  <g>
    <g>
      <path class="cls-1" d="M69.02,58.37l1.19,9.86-6.05.35s1.81,14.78,7.72,12.97c5.91-1.81,7.72-9.92,7.72-9.92l-.39-5.43-2.36.53-1.16-6.82-6.67-1.53Z"/>
      <line class="cls-4" x1="70.2" y1="68.22" x2="70.67" y2="71.87"/>
    </g>
    <g>
      <g>
        <path class="cls-6" d="M69.59,58.38c1.76,3.2,6.99,6.14,9.99,3.5,2.99-2.65,1.44-11.42-1.84-15.92-3.28-4.5-9.03-.56-9.03-.56l.02,5.75.86,7.23Z"/>
        <path class="cls-4" d="M74.01,62.27c1.93.85,4.04.95,5.57-.4,2.99-2.65,1.44-11.42-1.84-15.92-3.28-4.5-9.03-.56-9.03-.56l.02,5.75.86,7.23"/>
        <line class="cls-2" x1="75.69" y1="50.66" x2="76.25" y2="52.43"/>
      </g>
      <g>
        <path class="cls-3" d="M68.5,36.79c-3.33,1.48-6.82,6.06-5.4,12.76.98,4.62,4.04,6.17,5.87,6.6"/>
        <path class="cls-3" d="M74.93,48.21c4.07-1.92,5.47-6.16,3.2-9.02-2.27-2.86-2.43,2.61-2.43,2.61l-.77,6.41Z"/>
        <path class="cls-13" d="M69.79,48.98c3.38,1.21,9.49-1.72,8.85-6.13-.63-4.41-6.64-10.78-12.14-4.83-5.5,5.95-2.79,15.73-.28,17,2.51,1.27,4.2-.96,4.2-.96l-.64-5.09Z"/>
      </g>
      <g>
        <path class="cls-6" d="M70.07,55.11c-2.46-1.85-5.07-1.19-5.08.44-.02,1.64,2.55,4.48,5.22,3.12l-.14-3.57Z"/>
        <path class="cls-4" d="M70.07,55.11c-2.46-1.85-5.07-1.19-5.08.44-.02,1.64,2.55,4.48,5.22,3.12"/>
        <line class="cls-1" x1="68.73" y1="56.29" x2="64.98" y2="55.56"/>
      </g>
    </g>
    <g>
      <g>
        <g>
          <path class="cls-4" d="M54.38,190.16c-3.73-1.25-5.75-6.81-3.92-7.02.94-.11,4.26,6.83,4.26,6.83-1-3.5-.78-8.29,2.42-8.58,2.75-.25,2.79,4.84-1.94,8.54"/>
          <path class="cls-12" d="M79.6,198.89h-34.8c-.18-5.05,3.34-9.15,10.3-9.34l24.5,9.34Z"/>
          <path class="cls-7" d="M45.15,195.97c-.26.92-.39,1.9-.35,2.92h34.8l-5.91-2.25-1.48-.11-27.06-.56Z"/>
        </g>
        <g>
          <path class="cls-4" d="M114.68,187.17c-1.07,3.55-6.12,5.13-6.35,3.33-.12-.92,6.17-3.68,6.17-3.68-3.18.73-7.69,2.36-8.02-.78-.29-2.7,4.92-2.86,7.98.31"/>
          <path class="cls-12" d="M105.6,198.89h15.09l9.51-19.02c-.07-7.42-6.71-10.17-13.23-13.01l-3.19,17.39-.82,7.06c-5.27.17-8.51,3.62-7.36,7.58Z"/>
          <path class="cls-7" d="M130.2,179.87c-.02-1.59-.33-2.96-.88-4.16-2.32,4.93-8.53,17.96-10.15,19.66-1.53,1.6-9.57,1.37-13.71,1.08-.13.77-.1,1.6.14,2.44h15.09l9.51-19.02Z"/>
        </g>
      </g>
      <g>
        <g>
          <path class="cls-9" d="M80.2,99.64c-14.11,16.78-19.07,28.79-20.78,42.71-1.72,13.92-4.31,47.2-4.31,47.2,1.62,3.62,13.57,9.04,24.5,9.34,0,0,1.05-44.43,2.96-51.86,1.91-7.44,10.49-16.02,10.49-16.02v-33.18l-12.85,1.8Z"/>
          <path class="cls-13" d="M78.36,132.97c1.21,4.89,2.85,9.54,4.39,13.36,2.24-7.26,10.29-15.32,10.29-15.32v-31.38l-1.44,4.19c-3.06,8.02-16.24,16.98-13.24,29.14Z"/>
        </g>
        <path class="cls-9" d="M87.32,103.56c-5.34,15.25-5.74,20.9-1.25,36.09s20.4,46.4,20.4,46.4c8.78-2.05,19.79-6.99,25.47-15.37,0,0-22.64-28.98-24.48-46.52-1.84-17.54-.88-28.79-.88-28.79l-19.26,8.2Z"/>
      </g>
    </g>
    <path class="cls-11" d="M65.36,68.11s-11.11-2.1-13.32,3.76c-2.22,5.86,2.96,19.77,23.65,31.21,20.69,11.44,26.41-7.15,26.41-7.15l2.19-29.75s-13.35-1.24-18.97-1.53c-5.62-.29-7.42,1.82-7.42,1.82-3.36,15.21-12.87,17.97-12.54,1.63Z"/>
  </g>
  <g>
    <path class="cls-11" d="M102.11,65.98c11.72.2,25.73,1.44,27.83,12.97s-7.44,30.27-7.44,30.27c-3.45.42-6.6-.13-9.57-1.29,0,0,5.47-21.64.41-22.69-5.05-1.05-13.1-1.52-13.1-1.52l1.86-17.74Z"/>
    <path class="cls-13" d="M101.81,78l-1.15,1.73-.42,3.99s-3.39,2.58-1.82,2.71c8.1-4.75,13.22-13.39,15.31-19.62-2.48-.39-5.06-.6-7.61-.72l-4.31,11.9Z"/>
  </g>
  <g>
    <g>
      <path class="cls-1" d="M70.26,84.55c-3.54.65-10.92.22-11.26.65-.33.43,6.82,2.43,6.82,2.43,0,0-9.68.43-11.25,0-1.57-.43-1.05,5.34,5.1,6.29,6.15.95,6.67.95,6.67.95,0,0-5.48.48-6.39.48s1.57,1.24,6.48.81c4.91-.43,7.63-1.76,7.63-1.76l1.33-3.29-5.14-6.56Z"/>
      <path class="cls-4" d="M62.87,89.97c-3.69.13-7.87-.62-9.03-1.09"/>
      <path class="cls-4" d="M55.1,91.59c2.19.82,9.06.96,9.06.96"/>
    </g>
    <path class="cls-7" d="M105.24,45.02c5.15,1.33,10.58,4.76,5.91,19.06s-8.82,20.39-16.87,25.26c-6.34,3.84-20.21,5.42-20.21,5.42-2.49-2.23-4.31-6.87-4.61-10.43,0,0,18.72-5.76,20.39-9.48,1.67-3.72,7.71-21.9,12.03-24.2,4.32-2.3,3.36-5.63,3.36-5.63Z"/>
  </g>
  <g>
    <g>
      <path class="cls-1" d="M131.4,129.03l7.55,5.18c4.86,2.93,13.57,23.76,4.34,27.12-6.86,2.5-8.28-6.41-9.14-12.51-.78-5.45-.65-10.2-.65-10.2l-5.22-1.86,3.13-7.73Z"/>
      <g>
        <path class="cls-7" d="M141.03,135.65c3.81,1.98,6.28,8.3,7.19,13.94.91,5.65,1.39,14.29-3.93,14.77-5.32.48,2.32-9.49,2.32-9.49l-2.7-12.02-2.88-7.2Z"/>
        <path class="cls-11" d="M139.97,134.5l3.32,15.2-1.43-2.85-6.86,1.2.5,3.15s-.83-1.36-1.65-2.96c0,.06,0,.11,0,.17.14,5.51,3.58,18.45,10.44,15.95,8.85-3.23.66-25.46-4.32-29.85Z"/>
        <g>
          <path class="cls-4" d="M143.59,157.4c-1.37-.39-3.74.21-4.52.84"/>
          <path class="cls-4" d="M143.47,154.53c-2.11-.26-3.95-.08-5.31.92"/>
          <path class="cls-4" d="M142.19,150.75c-2.06-.06-3.86.45-5.31,1.64"/>
        </g>
        <path class="cls-7" d="M144.04,159.29c-2.51.03-5.24.72-6.9,1.23,1.71,3,4.08,4.95,7.14,3.84,2-.73,3.13-2.44,3.62-4.68-.77-.21-1.99-.4-3.86-.38Z"/>
      </g>
    </g>
    <g>
      <path class="cls-8" d="M101.92,83.84s7.05.64,9.58,1.07c2.84.48,4.19.1,3.97,7.06-.22,6.96-2.54,15.97-2.54,15.97l-3.04,4.43c7.3,3.09,14.41,8.54,21.38,15.87.63,3.4.22,6.51-1.91,9.15,0,0-42.14-6.11-43.47-21.07-1.33-14.96,16.03-32.49,16.03-32.49Z"/>
      <path class="cls-13" d="M109.89,112.37l3.04-4.43s2.32-9.01,2.54-15.97c.22-6.96-1.13-6.58-3.97-7.06-1.04-.18-2.82-.39-4.57-.57,6.69,10.47-3.31,25.8-3.31,25.8,0,0,3.5,1.1,6.27,2.24Z"/>
      <path class="cls-4" d="M99.6,109.37c3.79.64,7.94,1.92,10.3,3"/>
    </g>
  </g>
</svg>