<?xml version="1.0" encoding="UTF-8"?>
<svg id="Layer_1" data-name="Layer 1" xmlns="http://www.w3.org/2000/svg" viewBox="0 0 185.98 203.96">
  <defs>
    <style>
      .cls-1, .cls-2, .cls-3 {
        stroke: #262c97;
      }

      .cls-1, .cls-2, .cls-3, .cls-4, .cls-5 {
        stroke-miterlimit: 10;
        stroke-width: .5px;
      }

      .cls-1, .cls-6 {
        fill: #ffc7e0;
      }

      .cls-7 {
        fill: #fff;
      }

      .cls-2, .cls-3, .cls-4, .cls-5 {
        fill: none;
      }

      .cls-2, .cls-5 {
        stroke-linecap: round;
      }

      .cls-8 {
        fill: #4f6abd;
      }

      .cls-4, .cls-5 {
        stroke: #68283d;
      }

      .cls-9 {
        opacity: .41;
      }

      .cls-9, .cls-10 {
        fill: #e85680;
      }

      .cls-11 {
        fill: #68283d;
      }

      .cls-12 {
        fill: #262c97;
      }
    </style>
  </defs>
  <ellipse class="cls-9" cx="90.73" cy="198.51" rx="90.73" ry="5.45"/>
  <g>
    <g>
      <path class="cls-8" d="M128.27,61.85c-5.28,25.03,30.65,118.17,41.7,136.59h-41.81c-10.09-27.88-17.68-59.71-23.61-94.15-4.42,32.82-4.62,64.27,0,94.15h-37.57s.46-106.09,18.36-132.17c17.89-26.08,42.94-4.42,42.94-4.42Z"/>
      <path class="cls-12" d="M126.42,101.63c4.49-1.47,10.39,27.11,24.67,53.6h0c-9.29-24.56-18.71-53.76-22.07-74.18l-19.14.11s-19.38-29.33-28.34-8.78c-18.41,42.21,20.13,98.8,20.13,98.8v-.05c-1.24-21.56-.23-43.87,2.87-66.85,3.17,18.4,6.82,36.05,11.06,52.76-.01-1.38-4.29-50.45,10.81-55.41Z"/>
    </g>
    <g>
      <path class="cls-1" d="M133.2,16.18l-8.1,8.47-7.51-.88s-.52,8.32,5.16,10.68c5.67,2.36,12.52-3.46,12.52-3.46l-3.87-3.09,3.87-4.86-2.06-6.85Z"/>
      <g>
        <path class="cls-6" d="M133.2,16.18c-1.47,3.46-.52,9.58,3.54,10.31,4.05.74,10.17-6.11,11.71-11.64,1.55-5.53-5.3-7.66-5.3-7.66l-4.64,3.68-5.3,5.3Z"/>
        <path class="cls-3" d="M132.87,22.23c.55,2.11,1.81,3.88,3.87,4.26,4.05.74,10.17-6.11,11.71-11.64,1.55-5.53-5.3-7.66-5.3-7.66l-4.64,3.68-5.3,5.3"/>
        <path class="cls-2" d="M140.35,15.03c-.32,1.73.59,3.25,2.01,3.55"/>
        <path class="cls-9" d="M139.35,19.83c-.45.37-1.28.11-1.85-.58-.57-.69-.67-1.55-.22-1.92.45-.37,1.28-.11,1.85.58.57.69.67,1.55.22,1.92Z"/>
      </g>
      <g>
        <path class="cls-12" d="M140.94,10.35c1.18,3.51,7.44,6.58,10.61,3.26,3.17-3.33,4.49-12.24-3.83-12.9-8.32-.66-14.51,7.77-13.94,10.61.57,2.84,3.45,2.79,3.45,2.79l3.71-3.76Z"/>
        <path class="cls-2" d="M152.17,2.79c-2.73-2.58-8.47-4.07-14.28-.07-5.34,3.68-4.01,8.73-3.55,9.48"/>
        <path class="cls-2" d="M143.87,13.43c3.45,3.11,8.02,2.75,9.84-.54,1.82-3.29-3.44-1.28-3.44-1.28l-6.4,1.82Z"/>
      </g>
      <g>
        <path class="cls-6" d="M136.15,14.48c-.07-3.17-2.26-4.86-3.6-3.83-1.34,1.03-2,4.92.8,6.22l2.8-2.38Z"/>
        <path class="cls-3" d="M136.15,14.48c-.07-3.17-2.26-4.86-3.6-3.83-1.34,1.03-2,4.92.8,6.22"/>
        <line class="cls-1" x1="134.35" y1="14.15" x2="132.55" y2="10.65"/>
      </g>
    </g>
    <g>
      <path class="cls-10" d="M122.65,24.36s-2.28,6.7,2.82,8.1c5.1,1.4,8.51-2.91,8.51-2.91,0,0,5.28,3.65,6.64,7.26,1.35,3.61-.12,16.8-2.3,21.71-2.19,4.91-20.74,14.73-20.74,14.73l-34.88-24.44s6.38-22.26,17.73-26.59c7.95-3.03,22.23,2.14,22.23,2.14Z"/>
      <path class="cls-12" d="M117.57,52.28c-3.82-2.69,2.74-14.3,5.51-21.37-.94-1.26-1.03-2.96-.89-4.31l-3.72-1.38-10.34,13.06,1.57,15.54s11.69,1.16,7.87-1.53Z"/>
    </g>
    <g>
      <g>
        <path class="cls-3" d="M163.96,188.17c2.73-3,1.75-9.01,0-8.28-.9.37-.41,8.28-.41,8.28-.86-3.65-3.46-7.85-6.48-6.51-2.6,1.15-.08,5.76,6.03,6.71"/>
        <path class="cls-11" d="M140.25,198.44s8.45-1.42,12.38-4.17c3.93-2.75,11.69-6.96,11.69-6.96,7.37.99,11.27,4.86,12.27,11.13h-36.34Z"/>
        <path class="cls-7" d="M140.25,198.44h36.34c-.15-.96-.38-1.85-.67-2.69-7.29.2-18.63.63-28.95,1.05-3.43,1.09-6.72,1.64-6.72,1.64Z"/>
      </g>
      <g>
        <path class="cls-3" d="M85.98,190.01c-5.38,0-9.52-4.89-7.45-7.27,2.76-3.18,7.2,1.72,7.86,6.43.3-4.25,2.63-8.81,5.88-7.2,3.35,1.66-.2,7.45-5.09,8.04"/>
        <path class="cls-11" d="M96.83,199.89s1.67-9.87-9.87-11.05c-11.54-1.18-14.88,11.05-14.88,11.05h24.75Z"/>
        <path class="cls-7" d="M72.08,199.89h24.75s.15-.89.05-2.15c-3.36-.38-6.84-.65-9.88-.6-4.95.08-10.26.57-14.29,1.04-.44,1.03-.63,1.72-.63,1.72Z"/>
      </g>
    </g>
  </g>
  <g>
    <g>
      <path class="cls-1" d="M143.87,31.43l-4.47,10.53s-14.66,12.38-12.97,11.84c1.33-.43,19.02-10.27,20.78-11.1,4.05-1.92,2.92-11.27,2.92-11.27h-6.25Z"/>
      <g>
        <path class="cls-6" d="M153.99,21.78c-3.28-1.42-9.5.69-13.38,2.7-3.88,2.01,0,8.63,7.05,7.71,2.93-.38,6.29-3.49,6.93-5.94.64-2.46-.6-4.47-.6-4.47Z"/>
        <path class="cls-3" d="M147.67,32.19c2.93-.38,6.29-3.49,6.93-5.94.64-2.46-.6-4.47-.6-4.47-3.28-1.42-9.5.69-13.38,2.7-3.37,1.75-.88,6.99,4.48,7.71"/>
        <path class="cls-2" d="M148.14,23.52c-.21,1.75.8,3.21,2.24,3.41"/>
        <path class="cls-9" d="M146.31,28.47c-.56.18-1.23-.37-1.49-1.23-.27-.85-.04-1.69.52-1.86s1.23.37,1.49,1.23c.27.85.04,1.69-.52,1.86Z"/>
      </g>
      <g>
        <path class="cls-11" d="M151.3,21.31c-.93,1.54-.13,7.2.47,8.96.61,1.76-3.86,2.99-5.58,6.38-1.72,3.39-2.79,6.93.45,8.6,3.24,1.67,6.97,5.57,6.08,9.89-.88,4.32-3.83,14.08,2.85,21.84,6.68,7.76,22.89,5.4,24.07-12.67,1.18-18.07-12.97-20.92-16.8-24.16-3.83-3.24-5.94-5.49-4.96-10.08,1.56-7.27-3.34-11.48-6.58-8.75Z"/>
        <path class="cls-5" d="M151.3,21.31s.88-2.43,4.52-1.11c3.63,1.33,4.03,6.29,4.22,8.15.2,1.87.71,6.27,5.5,9.05,4.79,2.78,9.43,3.37,13.33,5.51,3.9,2.14,6.34,5.38,6.85,6.48"/>
        <path class="cls-4" d="M173.94,76.58c8.05-5.69,11.79-27.18-7.66-33.96"/>
      </g>
      <g>
        <path class="cls-6" d="M147.64,31.39s.7,3.87,3.98,4.64c3.28.77,3.26-2.49,2.5-3.82-.92-1.63-2.96-2.14-2.96-2.14l-3.53,1.33Z"/>
        <path class="cls-3" d="M147.64,31.39s.7,3.87,3.98,4.64c3.28.77,3.26-2.49,2.5-3.82-.92-1.63-2.96-2.14-2.96-2.14"/>
        <line class="cls-1" x1="154.54" y1="34.23" x2="151.09" y2="31.43"/>
      </g>
    </g>
    <g>
      <g>
        <path class="cls-1" d="M78.02,54.34c-8.99,1.18-45.53,26.52-45.53,26.52-6.69,2.15-24.15,3.46-22.1,4.42,1.39.65,27.41,5.64,28.88,5.7,1.47.05,2.58-3.56,2.58-3.56,0,0,25.27-4.49,42.36-16.58,17.09-12.08-6.19-16.5-6.19-16.5Z"/>
        <path class="cls-1" d="M99.39,51.83c-3.68-7.66-10.9-11.35-34.63-10.46-23.72.88-44.79,1.51-46.12-.13-1.33-1.64-6.78-14.02-7.51-15.05s-5.16,5.45-1.62,16.21c3.54,10.76,7.37,11.01,7.37,11.01,0,0,1.47-1.73,3.39-1.29,1.92.44,21.22,9.58,38.16,10.76s21.51-1.03,21.51-1.03l14,7.37,11.2-11.49-5.75-5.89Z"/>
      </g>
      <g>
        <g>
          <path class="cls-10" d="M19.43,52.52c-2.88-4.74-3.59-8.67-.79-11.28,0,0-3.83-7.54-5.3-12.4-2.14-7.05-6.97-8.74-7.37-7.51,1.67,10.84,1.25,19.55,4.25,35.71,2.08-.47,6.17.11,9.2-4.52Z"/>
          <path class="cls-10" d="M10.39,28.77c-.51,3.46,1.24,5.98,3.14,10.21,1.33,2.95,5.12,6.96,5.12,6.96,1.36-.86,3.32-2.87,2.14-4.79-3.44-4.22-6.17-7.2-7.44-12.3l-2.95-.07Z"/>
          <path class="cls-7" d="M5.19,20.82l4.22,36.81,4.12-1.06-4.17-25.77,3.98-1.95c-1.77-5.86-4.35-9.85-8.15-8.03Z"/>
          <g>
            <path class="cls-3" d="M11.05,33.59c1.29-.06,2.57-.62,3.86-1.69"/>
            <path class="cls-3" d="M12.16,37.36c1.89-.45,3.43-1.28,4.32-2.81"/>
            <path class="cls-3" d="M14.32,40.93c1.8-.65,3.2-1.81,4.13-3.57"/>
          </g>
        </g>
        <g>
          <path class="cls-10" d="M13.26,85.75c3.27,1.25,9.36,1.64,13.81.34,5.25-1.53,7.13-3.54,7.13-3.54-.55-1.52-4.47-4.99-6.6-4.25-4.87,2.44-9.83,4.33-15.09,4.46l.75,2.99Z"/>
          <path class="cls-10" d="M41.85,88.23c-6.47-.15-10.93-3.14-11.56-7.59,0,0-19.68,1.41-22.46,2.81-2.78,1.4-2.97,3.83-2.97,3.83,0,0,6.65,1.28,18.89,3.71,12.25,2.43,18.1,4.03,18.1,4.03v-6.78Z"/>
          <path class="cls-7" d="M15.56,82.01c-7.08-1.03-10.63.74-10.7,5.26l36.99,7.74v-3.39l-25.78-5.67-.5-3.94Z"/>
          <g>
            <line class="cls-3" x1="25.79" y1="82.04" x2="24.83" y2="79.62"/>
            <line class="cls-3" x1="21.81" y1="82.92" x2="21.44" y2="80.98"/>
            <line class="cls-3" x1="18.5" y1="83.51" x2="18.5" y2="81.68"/>
          </g>
        </g>
      </g>
    </g>
    <g>
      <path class="cls-7" d="M129.64,47.39c7.17-2.21,19.76-9.58,25.64-3.71,5.99,5.99-9.48,24.8-18.47,36.15-8.99,11.35-12.67,18.86-12.08,27.41.59,8.55,8.55,34.77,8.55,34.77,0,0-6.29-6.63-18.25-12.23-11.96-5.6-28.13-10.79-32.34-29.91-5.99-27.21,13.6-52.96,13.6-52.96,0,0,5.01,6.23,13.41,6.91s19.94-6.43,19.94-6.43Z"/>
      <path class="cls-12" d="M156.58,46.57c-.13,4.97-10.53,12.92-10.53,12.92l1.99,5.69c5-7.07,9.02-14.13,8.54-18.62Z"/>
      <path class="cls-12" d="M103.81,58.39c-.61,11.8,6.56,11.93,12.38,11.57,11.58-.73,21.59-7.37,21.59-7.37l-6.86,1.63-27.1-5.83Z"/>
      <path class="cls-3" d="M131.69,46.57c2.91,5.82,2.95,12.56,2.01,17.15"/>
      <path class="cls-3" d="M98.5,48.78s-12.45,18.81-10.75,43.49c1.25,18.2,13.63,26.7,27.11,33.65,14.59,7.53,17.33,12.41,17.33,12.41"/>
      <path class="cls-3" d="M124.44,65.65c2.07,5.64,6.38,10.13,12.93,13.47"/>
      <path class="cls-3" d="M122.06,65.97s2.26,10.8,13.7,15.2"/>
    </g>
    <g>
      <path class="cls-6" d="M108.82,21.35s4.42-3.23,12.6-2.77c8.18.47,4.64,4.52,3.68,6.07-.96,1.55-11.42,18.05-12.16,21.88-.74,3.83.59,4.31,3.39,4.29s13.31-3.17,13.31-3.17c1.98,5.48,2.32,10.82,1.42,16.53,0,0-24.86,5.98-30.72-1.54-8.32-10.67,14.59-40.41,14.59-40.41-2.67-.55-4.54-.78-6.11-.89Z"/>
      <path class="cls-3" d="M131.06,64.46s-24.86,5.7-30.72-1.81c-8.3-10.63,14.18-38.85,14.59-40.41"/>
      <path class="cls-3" d="M108.82,21.35c.06-.83,4.42-3.25,12.6-2.77,8.18.48,4.64,4.52,3.68,6.07-.96,1.55-11.42,18.05-12.16,21.88-.74,3.83.59,4.31,3.39,4.29s13.31-3.17,13.31-3.17"/>
    </g>
    <g>
      <path class="cls-1" d="M105.06,21.31s-4.28-3.07-10.47,1.64c-6.19,4.72-6.26,10.76-4.86,13.78,1.4,3.02,1.25,3.61,2.14,3.98.88.37,3.9-2.5,4.71-4.79.81-2.28,1.93-5.01,1.93-5.01,0,0,1.09,3.09,1.97.96,1.4-5.78,4.57-10.56,4.57-10.56Z"/>
      <path class="cls-3" d="M100.64,26.09c-1.62,2.24-2.12,4.82-2.12,4.82"/>
      <path class="cls-3" d="M95.04,29.36c-.52,1.69-1.06,10.21-1.06,10.21"/>
      <path class="cls-3" d="M91.96,29.36c-.82,2.65-1.02,10.21-1.02,10.21"/>
    </g>
  </g>
  <path class="cls-10" d="M164.75,8.16s1.38-5.69-2.21-3.23c-2.21,1.52-3.73,7.4-3.73,7.4,0,0,8.16.73,9.61-2.54.87-1.96-3.67-1.64-3.67-1.64Z"/>
  <g>
    <g>
      <path class="cls-1" d="M149.62,62.83c.1-.15.42-8.65,1.47-9.01s3.89,7.45,1.56,14.45c-2.44,7.34-10.24,10.86-14.08,9.35,0,0,.08-5.98,2.07-13.15,1.99-7.17.45-11.64,2.36-11.44,3.98.4,6.62,9.82,6.62,9.82Z"/>
      <path class="cls-3" d="M142.08,53.82c.85,1.48,2.83,8.92,3.06,11.35"/>
      <path class="cls-3" d="M141.83,67.23c.18-2.5-.28-7.33-.28-7.33"/>
    </g>
    <g>
      <path class="cls-1" d="M72.57,64.46c2.05,2.14,11.94,5.72,12.76,3.74,3.44-8.34,1.12-17.79-.31-18.43-4.71-2.11-11.37,7.96-11.37,7.96,0,0,1.18-8.55.2-8.94-.98-.39-6.48,10.22-1.28,15.67Z"/>
      <path class="cls-3" d="M77.07,58.39c2.21-5.3,3.45-7.5,5.34-8.72"/>
      <path class="cls-3" d="M80.79,59.13c1.49-3.62,3.86-7.82,4.23-9.36"/>
      <path class="cls-3" d="M83.62,60.86c2.06-2.87,2.7-8.57,2.7-8.57"/>
    </g>
  </g>
</svg>