<?xml version="1.0" encoding="UTF-8"?>
<svg id="Layer_1" data-name="Layer 1" xmlns="http://www.w3.org/2000/svg" viewBox="0 0 143.84 219.87">
  <defs>
    <style>
      .cls-1, .cls-2, .cls-3, .cls-4 {
        stroke: #262c97;
      }

      .cls-1, .cls-2, .cls-3, .cls-4, .cls-5 {
        stroke-width: .5px;
      }

      .cls-1, .cls-3, .cls-4, .cls-5 {
        stroke-miterlimit: 10;
      }

      .cls-1, .cls-6 {
        fill: #ffc7e0;
      }

      .cls-2 {
        stroke-linejoin: round;
      }

      .cls-2, .cls-3, .cls-4, .cls-5 {
        fill: none;
      }

      .cls-2, .cls-3, .cls-5 {
        stroke-linecap: round;
      }

      .cls-7 {
        fill: #fff;
      }

      .cls-8 {
        fill: #3752a5;
      }

      .cls-9 {
        fill: #4f6abd;
      }

      .cls-10 {
        opacity: .41;
      }

      .cls-10, .cls-11 {
        fill: #e85680;
      }

      .cls-12 {
        fill: #68283d;
      }

      .cls-5 {
        stroke: #68283d;
      }

      .cls-13 {
        fill: #262c97;
      }
    </style>
  </defs>
  <ellipse class="cls-10" cx="71.92" cy="214.42" rx="71.92" ry="5.45"/>
  <g>
    <g>
      <g>
        <path class="cls-9" d="M63.57,105.22s-3.55,50.92-4.98,107.11h23.69l-2.54-126.3-36.85-4.17c-16.2,34.81-15.96,130.46-15.96,130.46h30.26c-1.9-22.36,2.78-79.31,6.37-107.11Z"/>
        <path class="cls-13" d="M56.06,94.44c11.16-1.85,16.85-5.74,16.85-5.74l-6.4-4.16h0l-17,.97-5.64-3.53-.98-.11c-2.74,5.89-5.02,13.54-6.9,22.16,5.12-6.58,12.19-8.28,20.06-9.59Z"/>
      </g>
      <g>
        <g>
          <path class="cls-4" d="M45.78,204.24c-4.87,0-8.61-4.42-6.73-6.58,2.5-2.88,6.51,1.55,7.11,5.82.28-3.84,2.38-7.96,5.32-6.51,3.03,1.5-.18,6.74-4.6,7.27"/>
          <path class="cls-12" d="M55.6,213.17s1.51-8.93-8.93-9.99c-10.44-1.07-13.46,9.99-13.46,9.99h22.38Z"/>
          <path class="cls-7" d="M33.22,213.17h22.38s.13-.8.04-1.95c-3.03-.35-6.18-.58-8.94-.54-4.47.07-9.27.51-12.92.94-.4.93-.57,1.55-.57,1.55Z"/>
        </g>
        <g>
          <path class="cls-4" d="M71.13,204.24c-4.87,0-8.61-4.42-6.73-6.58,2.5-2.88,6.51,1.55,7.11,5.82.28-3.84,2.38-7.96,5.32-6.51,3.03,1.5-.18,6.74-4.6,7.27"/>
          <path class="cls-12" d="M80.94,213.17s1.51-8.93-8.93-9.99c-10.44-1.07-13.46,9.99-13.46,9.99h22.38Z"/>
          <path class="cls-7" d="M58.56,213.17h22.38s.13-.8.04-1.95c-3.03-.35-6.18-.58-8.94-.54-4.47.07-9.27.51-12.92.94-.4.93-.57,1.55-.57,1.55Z"/>
        </g>
      </g>
    </g>
    <g>
      <path class="cls-1" d="M55.98,16.11l-2.54,14.1-7.95,2.32s4.89,9.4,14.16,9.02c9.27-.38,9.97-8.89,9.97-8.89l-7.78-2.38.06-8.71-4.45-5.75-1.47.3Z"/>
      <g>
        <g>
          <path class="cls-6" d="M56.91,16.67c-.52,3.26,1.6,8.27,5.21,8.03,3.61-.24,7.36-7.37,7.5-12.41.14-5.04-6.15-5.4-6.15-5.4l-3.17,4.13-3.39,5.65Z"/>
          <path class="cls-4" d="M57.92,21.9c.91,1.68,2.37,2.92,4.2,2.8,3.61-.24,7.36-7.37,7.5-12.41.14-5.04-6.15-5.4-6.15-5.4l-3.17,4.13-3.39,5.65"/>
          <line class="cls-2" x1="65.55" y1="14.53" x2="64.97" y2="16.11"/>
        </g>
        <g>
          <path class="cls-3" d="M68.42,1.01c-3.16-1.72-10.16-.69-12.86,4.89-1.86,3.85,1.07,7.52,2.14,8.84"/>
          <path class="cls-3" d="M66.36,12.35c3.98.88,7.32-1.38,7.28-4.68-.04-3.3-3.18.52-3.18.52l-4.1,4.16Z"/>
          <path class="cls-13" d="M62.26,10.06c1.75,2.74,7.74,4.02,9.73.52,1.99-3.51.89-10.3-6.44-10.55-3.56-.12-6.99,2.55-8.64,4.61-2.31,2.88-1.73,6.29-.55,7.77,1.59,1.98,3.53,1.64,3.53,1.64l2.36-3.99Z"/>
        </g>
        <g>
          <path class="cls-6" d="M59.06,14.6c-.74-2.68-2.96-3.66-3.88-2.5-.92,1.16-.66,4.61,2.01,5.12l1.88-2.63Z"/>
          <path class="cls-4" d="M59.06,14.6c-.74-2.68-2.96-3.66-3.88-2.5-.92,1.16-.66,4.61,2.01,5.12"/>
          <line class="cls-1" x1="57.46" y1="14.7" x2="55.18" y2="12.11"/>
        </g>
      </g>
      <g>
        <path class="cls-11" d="M51.35,30.57s1.83,9.56,8.95,9c6.1-.48,5.51-8.38,5.51-8.38,0,0,13.88,2.09,18.64,9.1,4.76,7.02,2,39.84,2,39.84,0,0-3.13,13.91-34.7,11.15-14.64-1.28-14.66-8.27-15.03-14.66-.38-6.39.63-13.65.63-13.65-5.27-.42-9.78-2.08-13.91-4.38,0,0,2.38-18.92,10.4-23.3,8.02-4.38,17.51-4.71,17.51-4.71Z"/>
        <path class="cls-4" d="M23.44,55.95c2.33,1.92,9.3,4.54,15.98,5.09"/>
        <path class="cls-13" d="M84.45,40.29c-2.97-4.37-9.48-6.83-13.96-8.06,7.94,6.29,10.22,10.12,11.31,13.78.82,2.77,3.13,1.3,4.52.04-.43-2.5-1.03-4.53-1.87-5.76Z"/>
        <path class="cls-13" d="M71.92,68.04l-11.94-10.11-10.75,12.2-12.13,10.85c.39,2.54,1.28,4.95,3.61,6.82,9.22-3.82,11.8-21.3,23.19-25.16l8.02,5.4Z"/>
      </g>
    </g>
  </g>
  <g>
    <g>
      <g>
        <polygon class="cls-1" points="78.62 197.77 77.51 209.59 86.35 208.27 89.61 195.77 79.51 196.16 78.62 197.77"/>
        <polygon class="cls-1" points="101.59 194.3 107.45 204.62 113.94 198.46 109.45 186.36 101.39 192.47 101.59 194.3"/>
      </g>
      <g>
        <path class="cls-13" d="M76.65,154.86c5.31,9.38,27.5,44.82,27.5,44.82,3.57-.36,7.13-2.27,8.83-5.68,0,0-7.58-34.03-15.7-47.44s-20.63,8.3-20.63,8.3Z"/>
        <path class="cls-8" d="M108.47,88.7c6.04,16.42-19.9,114.78-19.9,114.78-3.11,1.35-7.79,1.18-11.61-.1l.69-46.12s-6.13-12.22-4.44-32.47c1.69-20.24,4.44-34.57,4.44-34.57l30.82-1.53Z"/>
        <path class="cls-13" d="M73.21,124.8c-1.69,20.24,4.44,32.47,4.44,32.47,2.04-22.15,2.58-55.38-.73-62.82-.93,5.67-2.56,16.65-3.71,30.35Z"/>
      </g>
      <g>
        <path class="cls-11" d="M86.82,206.49c2.5,2.02,2.74,5.82,1.7,8.29l-28.73-.03s.23-5.4,5.34-6.23c7.31-1.19,9.8-4.08,9.8-4.08l2.9,1.19-.85,1.71c3.62.94,7.45.81,9.84-.86Z"/>
        <path class="cls-7" d="M56.28,215.18l33.5-.08-.54-3.8-23.58,1.15-1.35-3.78c-5.44,1-9.29,2.91-8.04,6.52Z"/>
        <g>
          <path class="cls-4" d="M68.2,210.68c.08-1.1-.27-2.25-1.05-3.44"/>
          <path class="cls-4" d="M71.51,210.11c-.19-1.65-.74-3.04-1.95-3.95"/>
          <path class="cls-4" d="M74.75,208.63c-.37-1.59-1.21-2.89-2.62-3.86"/>
        </g>
      </g>
      <g>
        <path class="cls-11" d="M113.3,196.74c3.21.22,5.58,3.2,6.15,5.81l-16.36,11.43-9.08.09s-3.47-3.74,1.66-5.53c7.16-2.49,6.71-6.65,6.71-6.65l3.06-.69.28,1.89c3.5-1.3,6.57-3.61,7.57-6.34Z"/>
        <path class="cls-7" d="M95.68,208.54l2.53,3.18s3.15.95,6.62-1.48c3.46-2.43,13.31-10.56,13.31-10.56l2.14,3-17.19,11.3-10.22.09c-1.96-2.61-1.01-4.31,2.81-5.53Z"/>
        <g>
          <path class="cls-4" d="M100.81,209.6c-.46-1-1.32-1.84-2.58-2.51"/>
          <path class="cls-4" d="M103.44,207.5c-.97-1.35-2.12-2.3-3.61-2.51"/>
          <path class="cls-4" d="M105.57,204.65c-1.09-1.21-2.46-1.95-4.15-2.11"/>
        </g>
      </g>
    </g>
    <g>
      <g>
        <path class="cls-12" d="M80.48,22.94c-1.17-2.16,1.3-8.21,8.15-6.25s8.07,8.43,9.11,13.7c1.03,5.26,13.73,5.26,15.82,16.45,2.09,11.19-5.01,14.6-13.28,13.39-8.27-1.2-16.2-22.79-16.2-22.79l-3.59-14.5Z"/>
        <path class="cls-5" d="M86.23,16.57c-2.01,0-4.59.35-6.2,3.44-1.61,3.09,0,5.09,0,5.09"/>
        <path class="cls-5" d="M97.74,30.91c3.18,3.93,12.04,4.04,16.18,12.85,3.89,8.27-2.87,15.14-5.11,15.14"/>
      </g>
      <g>
        <path class="cls-1" d="M88.15,31.52l1.94,12.21s1.06-.06,2.63.75c1.57.81-8.71,16.79-8.71,16.79,0,0-6.39.56-6.39-2.13s5.51-15.78,5.51-15.78l-.06-11.41,3.04-2.87,2.03,2.45Z"/>
        <g>
          <path class="cls-7" d="M79.4,57.2c5.85.25,11.25-13.43,11.25-13.43,0,0,1.31-.18,3.25.46l.69,19.48,5.14,25.68s-26.53,9.31-25.18-.63c1.38-10.15-1.13-21.95.38-27.45,1.5-5.5,4.47-4.12,4.47-4.12Z"/>
          <path class="cls-13" d="M97.69,79.15c-2.64-2.85-18.4-14.88-18.4-14.88l-4.02-.37-.83,1.79c-.02,1.29.02,2.7.08,4.2,9.36,6.39,19.34,17.4,24.96,18.25l-1.8-8.98Z"/>
        </g>
      </g>
      <g>
        <path class="cls-6" d="M82.6,21.24c-2.85,1.38-5.62,6.68-5.91,10.54-.33,4.42,5.79,4.98,9.25-.28,1.43-2.18,1.29-6.23,0-8.08-1.28-1.85-3.35-2.18-3.35-2.18Z"/>
        <path class="cls-4" d="M85.94,31.5c1.43-2.18,1.29-6.23,0-8.08-1.28-1.85-3.35-2.18-3.35-2.18-2.85,1.38-5.06,5.9-5.91,10.54-.6,3.31,4.19,4.62,7.76,1.45"/>
        <line class="cls-2" x1="81.88" y1="25.36" x2="81.1" y2="26.85"/>
      </g>
      <path class="cls-12" d="M82.6,21.24c-.03,1.95,4.8,6.26,4.8,6.26l2.56,2.57s2.25-6.51,0-9.21c-2.25-2.69-7.36.37-7.36.37Z"/>
      <g>
        <path class="cls-6" d="M85.39,31.05s3,1.76,5.41,0c2.41-1.75.21-3.62-1.12-3.89-1.62-.32-3.15.75-3.15.75l-1.15,3.13Z"/>
        <path class="cls-4" d="M85.39,31.05s3.19,1.99,5.41,0c1.72-1.54.68-3.67-1.12-3.89-1.64-.2-3.15.75-3.15.75"/>
        <line class="cls-1" x1="91.27" y1="28.06" x2="87.4" y2="28.76"/>
      </g>
    </g>
  </g>
  <path class="cls-12" d="M68.89,49.64c-1.88-9.22-16.36-12.95-16.36.09,0,10.04,14.93,27.18,14.93,27.18,0,0,22.72-20.41,15.31-30.38-4.98-6.7-11.04-2.39-13.88,3.11Z"/>
  <g>
    <path class="cls-6" d="M93.91,44.23s7.52,1.1,12.46,12.8c5.75,13.6,10.11,33.13,3.17,34.6-6.93,1.48-14.53-5.04-20.29-11.3-5.76-6.26-15.64-16.31-16.83-17.56-1.19-1.25-.86-1.73.69-.94s3.82,2.13,3.82,2.13c0,0-5.01-5.26-5.57-6.58-.56-1.32,4.07-.81,7.61.88s17.19,13.28,17.19,13.28l-1.57-7.83c-1.86-6.07-2.33-12.87-.69-19.48Z"/>
    <g>
      <path class="cls-4" d="M93.91,44.23s7.52,1.1,12.46,12.8c5.75,13.6,10.11,33.13,3.17,34.6-6.93,1.48-14.53-5.04-20.29-11.3-5.76-6.26-15.64-16.31-16.83-17.56-1.19-1.25-.86-1.73.69-.94s3.82,2.13,3.82,2.13c0,0-5.01-5.26-5.57-6.58-.56-1.32,4.07-.81,7.61.88s17.19,13.28,17.19,13.28l-1.57-7.83"/>
      <path class="cls-4" d="M101.95,77.41c-2.46-2.96-3.96-4.33-5.78-5.87"/>
      <path class="cls-4" d="M71.32,57.12c1.27.52,7.01,5.45,7.89,6.24"/>
      <path class="cls-4" d="M72.97,56.65c1.8.23,6.97,3.81,8.35,5.08"/>
    </g>
  </g>
  <g>
    <g>
      <path class="cls-6" d="M24.22,59s-4.28,25.93,5.66,28.1c9.94,2.17,22.8-15.68,25.47-18.87,2.67-3.19,9.94-5.95,10-6.51.06-.56-5.51.75-5.51.75,0,0,7.77-7.39,7.14-8.14-.63-.75-12.53,2.32-12.53,2.32l-.81-1.75s-2.04,2.64-5.45,6.51c-10.52,11.96-14.32,12.17-10.84,1.57-4.6-.38-9-1.64-13.13-3.96Z"/>
      <path class="cls-4" d="M53.63,54.88s-2.04,2.64-5.45,6.51c-10.52,11.96-14.32,12.17-10.84,1.57"/>
      <path class="cls-4" d="M24.22,59s-4.28,25.93,5.66,28.1c9.94,2.17,22.8-15.68,25.47-18.87,2.67-3.19,9.94-5.95,10-6.51.06-.56-5.51.75-5.51.75,0,0,7.77-7.39,7.14-8.14-.63-.75-12.53,2.32-12.53,2.32"/>
      <path class="cls-4" d="M58.52,60.45c2.38-2.51,7.99-5.05,7.99-5.05"/>
      <path class="cls-4" d="M56.06,58.49c2.59-2,5.13-3.22,7.85-3.99"/>
    </g>
    <g>
      <path class="cls-1" d="M106.84,64.57c-.06-.12-5.61-3.47-5.46-4.3.14-.83,6.39.15,10.2,4.28,3.99,4.33,3.47,10.82,1.04,12.82,0,0-3.95-2.26-8-6.23-4.05-3.97-7.58-4.59-6.76-5.78,1.73-2.5,8.98-.8,8.98-.8Z"/>
      <path class="cls-4" d="M98.06,66.28c1.3-.02,6.99,1.4,8.69,2.14"/>
      <path class="cls-4" d="M106.9,71.38c-1.6-1.04-4.98-2.51-4.98-2.51"/>
    </g>
  </g>
</svg>