<svg fill="none" xmlns="http://www.w3.org/2000/svg" viewBox="0 0 24 24">
  <g filter="url(#Dx0c35RXjBl3a)">
    <path d="M1.86 18.906c-.048-.522.035-1.076.09-1.63.076-.772.191-1.538.325-2.302.203-1.162.456-2.314.76-3.454.369-1.402.773-2.792 1.268-4.154.126-.347.265-.688.415-1.025a2.88 2.88 0 01.271-.481c.394-.56.942-.767 1.608-.708.161.013.32.044.474.094.686.227.991.804.786 1.498-.097.33-.26.632-.396.946a44.778 44.778 0 00-2.336 6.8c-.2.792-.395 1.586-.517 2.395-.097.641-.15 1.286-.085 1.934.032.327.119.642.297.923.323.512.797.71 1.386.648.442-.047.836-.23 1.209-.46.452-.279.898-.566 1.347-.847.191-.119.392-.218.616-.257.229-.04.447-.01.623.149.34.306.553.68.54 1.151-.01.346-.172.631-.387.89-.28.337-.624.598-.995.823a8.813 8.813 0 01-3.086 1.138 5.407 5.407 0 01-1.439.082c-1.08-.1-1.84-.659-2.312-1.622-.214-.436-.313-.908-.377-1.387-.048-.367-.07-.736-.084-1.144z" fill="url(#Dx0c35RXjBl3b)"/>
  </g>
  <g filter="url(#Dx0c35RXjBl3c)">
    <path d="M15.913 2.999a2.083 2.083 0 012.09-2.076A2.081 2.081 0 1115.913 3z" fill="url(#Dx0c35RXjBl3d)"/>
  </g>
  <g filter="url(#Dx0c35RXjBl3e)">
    <path d="M22.173 18.208a2.097 2.097 0 00-.443-.167 21.85 21.85 0 01-2.14-.693c-.315-.118-.342-.209-.176-.504.149-.264.302-.525.455-.787.615-1.05 1.166-2.132 1.562-3.285.264-.767.44-1.553.463-2.336 0-.192-.012-.385-.037-.576-.104-.713-.352-1.359-.887-1.864-.403-.38-.886-.62-1.42-.762-.763-.203-1.517-.21-2.264.06-1.127.409-1.953 1.164-2.497 2.22a9.328 9.328 0 00-1.02 3.577 5.628 5.628 0 00.502 2.841c.24.518.558.986.923 1.423.156.187.156.297.01.474-.891 1.08-1.858 2.084-2.992 2.917a3.408 3.408 0 00-.55.481c-.25.285-.299.59-.107.925.33.581.816.91 1.5.9.295-.003.557-.117.798-.282.684-.47 1.336-.98 1.94-1.549.572-.54 1.085-1.136 1.607-1.724.24-.27.287-.282.62-.137a14.72 14.72 0 002.728.89c.315.07.627.098.931-.04.542-.247.826-.676.898-1.262.043-.352-.103-.584-.404-.74zm-3.518-5.975c-.386 1.097-.942 2.107-1.589 3.07a.499.499 0 01-.041.055c-.097.108-.168.106-.258-.008a2.576 2.576 0 01-.498-1.021c-.169-.723-.143-1.447.01-2.168a5.494 5.494 0 01.723-1.784c.228-.364.54-.622.965-.716.38-.084.712.091.877.444.1.214.114.444.12.675-.006.506-.143.982-.309 1.453z" fill="url(#Dx0c35RXjBl3f)"/>
  </g>
  <defs>
    <linearGradient id="Dx0c35RXjBl3b" x1="9.688" y1="6.583" x2="-1.58" y2="12.108" gradientUnits="userSpaceOnUse">
      <stop stop-color="#F672BC"/>
      <stop offset="1" stop-color="#8254C6"/>
    </linearGradient>
    <linearGradient id="Dx0c35RXjBl3d" x1="19.665" y1="1.257" x2="16.359" y2="4.601" gradientUnits="userSpaceOnUse">
      <stop stop-color="#F672BC"/>
      <stop offset="1" stop-color="#8254C6"/>
    </linearGradient>
    <linearGradient id="Dx0c35RXjBl3f" x1="21.49" y1="8.369" x2="9.533" y2="16.811" gradientUnits="userSpaceOnUse">
      <stop stop-color="#F672BC"/>
      <stop offset="1" stop-color="#8254C6"/>
    </linearGradient>
    <filter id="Dx0c35RXjBl3a" x="1.846" y="4.372" width="8.696" height="18.705" filterUnits="userSpaceOnUse" color-interpolation-filters="sRGB">
      <feFlood flood-opacity="0" result="BackgroundImageFix"/>
      <feBlend in="SourceGraphic" in2="BackgroundImageFix" result="shape"/>
      <feColorMatrix in="SourceAlpha" values="0 0 0 0 0 0 0 0 0 0 0 0 0 0 0 0 0 0 127 0" result="hardAlpha"/>
      <feOffset dy="-.77"/>
      <feGaussianBlur stdDeviation=".616"/>
      <feComposite in2="hardAlpha" operator="arithmetic" k2="-1" k3="1"/>
      <feColorMatrix values="0 0 0 0 0 0 0 0 0 0 0 0 0 0 0 0 0 0 0.15 0"/>
      <feBlend in2="shape" result="effect1_innerShadow_90_10"/>
      <feColorMatrix in="SourceAlpha" values="0 0 0 0 0 0 0 0 0 0 0 0 0 0 0 0 0 0 127 0" result="hardAlpha"/>
      <feOffset dy="-.462"/>
      <feGaussianBlur stdDeviation=".385"/>
      <feComposite in2="hardAlpha" operator="arithmetic" k2="-1" k3="1"/>
      <feColorMatrix values="0 0 0 0 0 0 0 0 0 0 0 0 0 0 0 0 0 0 0.15 0"/>
      <feBlend in2="effect1_innerShadow_90_10" result="effect2_innerShadow_90_10"/>
    </filter>
    <filter id="Dx0c35RXjBl3c" x="15.913" y=".153" width="4.161" height="4.931" filterUnits="userSpaceOnUse" color-interpolation-filters="sRGB">
      <feFlood flood-opacity="0" result="BackgroundImageFix"/>
      <feBlend in="SourceGraphic" in2="BackgroundImageFix" result="shape"/>
      <feColorMatrix in="SourceAlpha" values="0 0 0 0 0 0 0 0 0 0 0 0 0 0 0 0 0 0 127 0" result="hardAlpha"/>
      <feOffset dy="-.77"/>
      <feGaussianBlur stdDeviation=".616"/>
      <feComposite in2="hardAlpha" operator="arithmetic" k2="-1" k3="1"/>
      <feColorMatrix values="0 0 0 0 0 0 0 0 0 0 0 0 0 0 0 0 0 0 0.15 0"/>
      <feBlend in2="shape" result="effect1_innerShadow_90_10"/>
      <feColorMatrix in="SourceAlpha" values="0 0 0 0 0 0 0 0 0 0 0 0 0 0 0 0 0 0 127 0" result="hardAlpha"/>
      <feOffset dy="-.462"/>
      <feGaussianBlur stdDeviation=".385"/>
      <feComposite in2="hardAlpha" operator="arithmetic" k2="-1" k3="1"/>
      <feColorMatrix values="0 0 0 0 0 0 0 0 0 0 0 0 0 0 0 0 0 0 0.15 0"/>
      <feBlend in2="effect1_innerShadow_90_10" result="effect2_innerShadow_90_10"/>
    </filter>
    <filter id="Dx0c35RXjBl3e" x="11.438" y="6.316" width="11.147" height="16.737" filterUnits="userSpaceOnUse" color-interpolation-filters="sRGB">
      <feFlood flood-opacity="0" result="BackgroundImageFix"/>
      <feBlend in="SourceGraphic" in2="BackgroundImageFix" result="shape"/>
      <feColorMatrix in="SourceAlpha" values="0 0 0 0 0 0 0 0 0 0 0 0 0 0 0 0 0 0 127 0" result="hardAlpha"/>
      <feOffset dy="-.77"/>
      <feGaussianBlur stdDeviation=".616"/>
      <feComposite in2="hardAlpha" operator="arithmetic" k2="-1" k3="1"/>
      <feColorMatrix values="0 0 0 0 0 0 0 0 0 0 0 0 0 0 0 0 0 0 0.15 0"/>
      <feBlend in2="shape" result="effect1_innerShadow_90_10"/>
      <feColorMatrix in="SourceAlpha" values="0 0 0 0 0 0 0 0 0 0 0 0 0 0 0 0 0 0 127 0" result="hardAlpha"/>
      <feOffset dy="-.462"/>
      <feGaussianBlur stdDeviation=".385"/>
      <feComposite in2="hardAlpha" operator="arithmetic" k2="-1" k3="1"/>
      <feColorMatrix values="0 0 0 0 0 0 0 0 0 0 0 0 0 0 0 0 0 0 0.15 0"/>
      <feBlend in2="effect1_innerShadow_90_10" result="effect2_innerShadow_90_10"/>
    </filter>
  </defs>
</svg>
