<svg xmlns="http://www.w3.org/2000/svg" xmlns:xlink="http://www.w3.org/1999/xlink" fill="none" viewBox="0 0 303 136">
  <path fill="url(#a)" fill-rule="evenodd" d="M2.032 134.608.567 67.914c-.114-5.177 7.05-6.629 8.96-1.816a4.644 4.644 0 0 0 5.919 2.645l4.396-1.616a9.45 9.45 0 0 1 5.214-.376l3.79.801a22.9 22.9 0 0 1 8.678 3.842l4.034 2.913a29 29 0 0 0 6.973 3.709l3.438 1.263c2.664.98 5.17 2.344 7.438 4.052l5.158 3.883a12.43 12.43 0 0 0 18.04-3.38l5.272-8.5a28 28 0 0 0 2.733-5.806l10.166-30.179 10.766-23.251c.287-.62.636-1.21 1.042-1.76 4.666-6.32 14.44-5.145 17.475 2.1l1.766 4.214a12.4 12.4 0 0 0 8.997 7.366c3.051.612 5.76 2.35 7.59 4.866l8.351 11.487 4.805 7.91c3.103 5.11 10.344 5.572 14.071.898a8.6 8.6 0 0 1 8.967-2.939l2.535.685a12.6 12.6 0 0 0 6.439.037l.212-.055a13.43 13.43 0 0 1 13.209 3.875l1.37 1.478a16.8 16.8 0 0 0 10.796 5.313l2.985.273a9.7 9.7 0 0 1 3.411.966c5.126 2.543 11.326.095 13.331-5.264l3.621-9.676c1.812-4.842 7.985-6.256 11.724-2.684a7.2 7.2 0 0 0 7.562 1.515l4.222-1.624a14.4 14.4 0 0 0 4.808-3.062l7.357-7.093a15.3 15.3 0 0 1 3.93-2.743l1.182-.573a13.25 13.25 0 0 1 19.029 11.92v86.095" clip-rule="evenodd"/>
  <path stroke="#F8AE55" stroke-linecap="round" stroke-linejoin="round" d="M2.032 134.608.567 67.914c-.114-5.177 7.05-6.629 8.96-1.816a4.644 4.644 0 0 0 5.919 2.645l4.396-1.616a9.45 9.45 0 0 1 5.214-.376l3.79.801a22.9 22.9 0 0 1 8.678 3.842l4.034 2.913a29 29 0 0 0 6.973 3.709l3.438 1.263c2.664.98 5.17 2.344 7.438 4.052l5.158 3.883a12.43 12.43 0 0 0 18.04-3.38l5.272-8.5a28 28 0 0 0 2.733-5.806l10.166-30.179 10.766-23.251c.287-.62.636-1.21 1.042-1.76 4.666-6.32 14.44-5.145 17.475 2.1l1.766 4.214a12.4 12.4 0 0 0 8.997 7.366c3.051.612 5.76 2.35 7.59 4.866l8.351 11.487 4.805 7.91c3.103 5.11 10.344 5.572 14.071.898a8.6 8.6 0 0 1 8.967-2.939l2.535.685a12.6 12.6 0 0 0 6.439.037l.212-.055a13.43 13.43 0 0 1 13.209 3.875l1.37 1.478a16.8 16.8 0 0 0 10.796 5.313l2.985.273a9.7 9.7 0 0 1 3.411.966c5.126 2.543 11.326.095 13.331-5.264l3.621-9.676c1.812-4.842 7.985-6.256 11.724-2.684a7.2 7.2 0 0 0 7.562 1.515l4.222-1.624a14.4 14.4 0 0 0 4.808-3.062l7.357-7.093a15.3 15.3 0 0 1 3.93-2.743l1.182-.573a13.25 13.25 0 0 1 19.029 11.92v86.095"/>
  <defs>
    <linearGradient id="a" x1="151.165" x2="151.165" y1="0" y2="134.608" gradientUnits="userSpaceOnUse">
      <stop stop-color="#F8AE55"/>
      <stop offset="1" stop-color="#fff" stop-opacity="0"/>
    </linearGradient>
  </defs>
</svg>
