<svg xmlns="http://www.w3.org/2000/svg" xmlns:xlink="http://www.w3.org/1999/xlink" fill="none" viewBox="0 0 1029 1029">
  <g filter="url(#a)">
    <rect width="1029" height="1029" fill="url(#b)" rx="227.763"/>
  </g>
  <g filter="url(#c)">
    <path fill="#fff" d="M208.833 700.595c-1.449-15.741 1.052-32.443 2.7-49.151 2.294-23.26 5.753-46.366 9.779-69.393a1221 1221 0 0 1 22.926-104.143c11.123-42.233 23.297-84.161 38.231-125.223a471 471 0 0 1 12.503-30.89 87 87 0 0 1 8.178-14.509c11.869-16.87 28.398-23.124 48.469-21.332 4.86.385 9.66 1.335 14.3 2.832 20.683 6.857 29.868 24.234 23.697 45.148-2.927 9.933-7.861 19.066-11.947 28.529-28.726 66.527-52.702 134.697-70.434 204.982-6.027 23.894-11.887 47.818-15.585 72.208-2.926 19.336-4.498 38.762-2.556 58.302.979 9.867 3.584 19.348 8.96 27.837 9.725 15.435 24.014 21.373 41.785 19.521 13.333-1.394 25.203-6.93 36.439-13.865 13.613-8.393 27.066-17.048 40.62-25.519 5.753-3.584 11.798-6.571 18.56-7.766 6.893-1.194 13.476-.274 18.768 4.499 10.245 9.229 16.678 20.515 16.296 34.718-.279 10.412-5.185 19.02-11.673 26.821-8.44 10.155-18.804 18.022-29.986 24.814-28.763 17.485-59.963 28.476-93.038 34.288-14.337 2.526-28.805 3.823-43.38 2.479-32.55-2.987-55.5-19.856-69.711-48.887-6.44-13.142-9.415-27.373-11.35-41.815-1.439-11.069-2.108-22.192-2.551-34.485"/>
  </g>
  <g filter="url(#d)">
    <path fill="#fff" d="M632.451 221.042a62.76 62.76 0 0 1 38.955-57.885 62.8 62.8 0 0 1 24.048-4.694c34.508.126 62.502 28.297 62.43 62.86-.06 34.778-28.285 62.674-63.32 62.573-34.192-.102-62.168-28.404-62.113-62.854"/>
  </g>
  <g filter="url(#e)">
    <path fill="#fff" d="M821.168 679.529a63.2 63.2 0 0 0-13.35-5.017c-21.923-5.681-43.32-13.011-64.515-20.906-9.497-3.548-10.31-6.284-5.304-15.178 4.486-7.957 9.104-15.842 13.739-23.727 18.518-31.66 35.125-64.269 47.084-99.047 7.951-23.124 13.243-46.821 13.96-70.405a131 131 0 0 0-1.123-17.358c-3.13-21.505-10.621-40.979-26.756-56.199-12.15-11.469-26.69-18.676-42.818-22.975-22.968-6.116-45.704-6.338-68.236 1.828-33.959 12.306-58.87 35.077-75.266 66.904a281.2 281.2 0 0 0-30.74 107.84c-2.312 29.814 2.55 58.427 15.125 85.643 7.227 15.615 16.803 29.714 27.812 42.896 4.702 5.63 4.702 8.96.323 14.276-26.881 32.562-56.014 62.842-90.2 87.937-5.938 4.36-11.684 8.96-16.589 14.522-7.556 8.585-9.008 17.777-3.243 27.884 9.988 17.515 24.605 27.425 45.212 27.15 8.919-.12 16.821-3.543 24.083-8.53 20.614-14.163 40.279-29.521 58.479-46.695 17.258-16.284 32.712-34.258 48.434-51.97 7.234-8.139 8.661-8.506 18.731-4.125a447 447 0 0 0 82.208 26.851c9.51 2.096 18.918 2.939 28.076-1.231 16.319-7.449 24.891-20.387 27.066-38.063 1.297-10.585-3.118-17.598-12.192-22.305M715.126 499.415c-11.648 33.081-28.41 63.51-47.896 92.536q-.567.875-1.249 1.667c-2.908 3.249-5.059 3.196-7.765-.223a77.6 77.6 0 0 1-15.011-30.794c-5.095-21.798-4.307-43.607.287-65.369a165.5 165.5 0 0 1 21.803-53.761c6.857-10.992 16.284-18.757 29.101-21.589 11.457-2.532 21.445 2.742 26.424 13.375 3.029 6.466 3.441 13.404 3.638 20.369-.198 15.248-4.332 29.584-9.332 43.789"/>
  </g>
  <defs>
    <filter id="a" width="1045.27" height="1050.21" x="-8.134" y="-13.077" color-interpolation-filters="sRGB" filterUnits="userSpaceOnUse">
      <feFlood flood-opacity="0" result="BackgroundImageFix"/>
      <feBlend in="SourceGraphic" in2="BackgroundImageFix" mode="normal" result="shape"/>
      <feColorMatrix in="SourceAlpha" result="hardAlpha" type="matrix" values="0 0 0 0 0 0 0 0 0 0 0 0 0 0 0 0 0 0 127 0"/>
      <feOffset dx="-8.134" dy="-13.077"/>
      <feGaussianBlur stdDeviation="18.685"/>
      <feComposite in2="hardAlpha" k2="-1" k3="1" operator="arithmetic"/>
      <feColorMatrix type="matrix" values="0 0 0 0 0 0 0 0 0 0 0 0 0 0 0 0 0 0 0.17 0"/>
      <feBlend in2="shape" mode="normal" result="effect1_innerShadow_776_10554"/>
      <feColorMatrix in="SourceAlpha" result="hardAlpha" type="matrix" values="0 0 0 0 0 0 0 0 0 0 0 0 0 0 0 0 0 0 127 0"/>
      <feOffset dx="8.134" dy="8.134"/>
      <feGaussianBlur stdDeviation="22.865"/>
      <feComposite in2="hardAlpha" k2="-1" k3="1" operator="arithmetic"/>
      <feColorMatrix type="matrix" values="0 0 0 0 1 0 0 0 0 1 0 0 0 0 1 0 0 0 0.37 0"/>
      <feBlend in2="effect1_innerShadow_776_10554" mode="normal" result="effect2_innerShadow_776_10554"/>
    </filter>
    <filter id="c" width="262.14" height="563.884" x="208.398" y="262.437" color-interpolation-filters="sRGB" filterUnits="userSpaceOnUse">
      <feFlood flood-opacity="0" result="BackgroundImageFix"/>
      <feBlend in="SourceGraphic" in2="BackgroundImageFix" mode="normal" result="shape"/>
      <feColorMatrix in="SourceAlpha" result="hardAlpha" type="matrix" values="0 0 0 0 0 0 0 0 0 0 0 0 0 0 0 0 0 0 127 0"/>
      <feOffset dy="-23.221"/>
      <feGaussianBlur stdDeviation="18.577"/>
      <feComposite in2="hardAlpha" k2="-1" k3="1" operator="arithmetic"/>
      <feColorMatrix type="matrix" values="0 0 0 0 0 0 0 0 0 0 0 0 0 0 0 0 0 0 0.2 0"/>
      <feBlend in2="shape" mode="normal" result="effect1_innerShadow_776_10554"/>
      <feColorMatrix in="SourceAlpha" result="hardAlpha" type="matrix" values="0 0 0 0 0 0 0 0 0 0 0 0 0 0 0 0 0 0 127 0"/>
      <feOffset dy="-13.933"/>
      <feGaussianBlur stdDeviation="11.611"/>
      <feComposite in2="hardAlpha" k2="-1" k3="1" operator="arithmetic"/>
      <feColorMatrix type="matrix" values="0 0 0 0 0 0 0 0 0 0 0 0 0 0 0 0 0 0 0.2 0"/>
      <feBlend in2="effect1_innerShadow_776_10554" mode="normal" result="effect2_innerShadow_776_10554"/>
    </filter>
    <filter id="d" width="125.433" height="148.655" x="632.451" y="135.241" color-interpolation-filters="sRGB" filterUnits="userSpaceOnUse">
      <feFlood flood-opacity="0" result="BackgroundImageFix"/>
      <feBlend in="SourceGraphic" in2="BackgroundImageFix" mode="normal" result="shape"/>
      <feColorMatrix in="SourceAlpha" result="hardAlpha" type="matrix" values="0 0 0 0 0 0 0 0 0 0 0 0 0 0 0 0 0 0 127 0"/>
      <feOffset dy="-23.221"/>
      <feGaussianBlur stdDeviation="18.577"/>
      <feComposite in2="hardAlpha" k2="-1" k3="1" operator="arithmetic"/>
      <feColorMatrix type="matrix" values="0 0 0 0 0 0 0 0 0 0 0 0 0 0 0 0 0 0 0.15 0"/>
      <feBlend in2="shape" mode="normal" result="effect1_innerShadow_776_10554"/>
      <feColorMatrix in="SourceAlpha" result="hardAlpha" type="matrix" values="0 0 0 0 0 0 0 0 0 0 0 0 0 0 0 0 0 0 127 0"/>
      <feOffset dy="-13.933"/>
      <feGaussianBlur stdDeviation="11.611"/>
      <feComposite in2="hardAlpha" k2="-1" k3="1" operator="arithmetic"/>
      <feColorMatrix type="matrix" values="0 0 0 0 0 0 0 0 0 0 0 0 0 0 0 0 0 0 0.15 0"/>
      <feBlend in2="effect1_innerShadow_776_10554" mode="normal" result="effect2_innerShadow_776_10554"/>
    </filter>
    <filter id="e" width="336.04" height="504.565" x="497.543" y="321.037" color-interpolation-filters="sRGB" filterUnits="userSpaceOnUse">
      <feFlood flood-opacity="0" result="BackgroundImageFix"/>
      <feBlend in="SourceGraphic" in2="BackgroundImageFix" mode="normal" result="shape"/>
      <feColorMatrix in="SourceAlpha" result="hardAlpha" type="matrix" values="0 0 0 0 0 0 0 0 0 0 0 0 0 0 0 0 0 0 127 0"/>
      <feOffset dy="-23.221"/>
      <feGaussianBlur stdDeviation="18.577"/>
      <feComposite in2="hardAlpha" k2="-1" k3="1" operator="arithmetic"/>
      <feColorMatrix type="matrix" values="0 0 0 0 0 0 0 0 0 0 0 0 0 0 0 0 0 0 0.2 0"/>
      <feBlend in2="shape" mode="normal" result="effect1_innerShadow_776_10554"/>
      <feColorMatrix in="SourceAlpha" result="hardAlpha" type="matrix" values="0 0 0 0 0 0 0 0 0 0 0 0 0 0 0 0 0 0 127 0"/>
      <feOffset dy="-13.933"/>
      <feGaussianBlur stdDeviation="11.611"/>
      <feComposite in2="hardAlpha" k2="-1" k3="1" operator="arithmetic"/>
      <feColorMatrix type="matrix" values="0 0 0 0 0 0 0 0 0 0 0 0 0 0 0 0 0 0 0.2 0"/>
      <feBlend in2="effect1_innerShadow_776_10554" mode="normal" result="effect2_innerShadow_776_10554"/>
    </filter>
    <linearGradient id="b" x1="928.004" x2="110.317" y1="82.688" y2="909.621" gradientUnits="userSpaceOnUse">
      <stop stop-color="#EF6FB7"/>
      <stop offset="1" stop-color="#7242BA"/>
    </linearGradient>
  </defs>
</svg>
