<svg xmlns="http://www.w3.org/2000/svg" xmlns:xlink="http://www.w3.org/1999/xlink" fill="none" viewBox="0 0 305 135">
  <path fill="url(#a)" fill-rule="evenodd" d="M1.532 130.559V79.614c0-4.542 4.196-7.923 8.634-6.956a7.1 7.1 0 0 0 4.084-.316l3.494-1.352a7.474 7.474 0 0 1 8.64 2.438c3.365 4.413 10.197 3.747 12.648-1.233l1.444-2.936a9.5 9.5 0 0 1 12.202-4.565l.63.265c1.217.51 2.52.781 3.84.797l2.451.028a13.88 13.88 0 0 1 10.366 4.832l1.824 2.124a10.06 10.06 0 0 0 17.045-3.008l6.978-18.51c1.16-3.078 4.833-4.344 7.643-2.633 2.778 1.691 6.41.475 7.61-2.548l2.064-5.2c2.774-6.99 12.148-8.208 16.616-2.16q.471.637 1.042 1.19l10.153 9.83 4.805 5.36c2.77 3.09 7.809 2.281 9.471-1.522 2.227-5.093 9.68-4.317 10.809 1.125l1.275 6.143c1.599 7.705 12.361 8.334 14.847.868l1.688-5.073 8.245-20.526a29 29 0 0 1 7.4-10.646l3.992-3.631a14.1 14.1 0 0 0 2.961-3.807l5.197-9.767c2.116-3.977 7.555-4.611 10.529-1.228a6.445 6.445 0 0 0 9.43.268l.206-.209c2.945-2.988 7.878-2.575 10.286.86l.816 1.166c2.778 3.964 8.434 4.522 11.933 1.178l.2-.191a8.14 8.14 0 0 1 8.802-1.61l1.452.616a10.54 10.54 0 0 1 5.861 6.304l6.568 19.288c1.158 3.401 5.588 4.232 7.9 1.482 2.354-2.8 6.873-1.879 7.944 1.618l8.24 26.9v65.892" clip-rule="evenodd"/>
  <path stroke="#00A478" stroke-linecap="round" stroke-linejoin="round" d="M1.532 130.559V79.614c0-4.542 4.196-7.923 8.634-6.956a7.1 7.1 0 0 0 4.084-.316l3.494-1.352a7.474 7.474 0 0 1 8.64 2.438c3.365 4.413 10.197 3.747 12.648-1.233l1.444-2.936a9.5 9.5 0 0 1 12.202-4.565l.63.265c1.217.51 2.52.781 3.84.797l2.451.028a13.88 13.88 0 0 1 10.366 4.832l1.824 2.124a10.06 10.06 0 0 0 17.045-3.008l6.978-18.51c1.16-3.078 4.833-4.344 7.643-2.633 2.778 1.691 6.41.475 7.61-2.548l2.064-5.2c2.774-6.99 12.148-8.208 16.616-2.16q.471.637 1.042 1.19l10.153 9.83 4.805 5.36c2.77 3.09 7.809 2.281 9.471-1.522 2.227-5.093 9.68-4.317 10.809 1.125l1.275 6.143c1.599 7.705 12.361 8.334 14.847.868l1.688-5.073 8.245-20.526a29 29 0 0 1 7.4-10.646l3.992-3.631a14.1 14.1 0 0 0 2.961-3.807l5.197-9.767c2.116-3.977 7.555-4.611 10.529-1.228a6.445 6.445 0 0 0 9.43.268l.206-.209c2.945-2.988 7.878-2.575 10.286.86l.816 1.166c2.778 3.964 8.434 4.522 11.933 1.178l.2-.191a8.14 8.14 0 0 1 8.802-1.61l1.452.616a10.54 10.54 0 0 1 5.861 6.304l6.568 19.288c1.158 3.401 5.588 4.232 7.9 1.482 2.354-2.8 6.873-1.879 7.944 1.618l8.24 26.9m0 0v65.892m0-65.892v49.461"/>
  <rect width="5" height="91" x="300" y="44" fill="#F9F9F9" rx="2.5"/>
  <rect width="3.342" height="76.382" y="58.618" fill="#F9F9F9" rx="1.671"/>
  <defs>
    <linearGradient id="a" x1="151.664" x2="151.664" y1="0" y2="130.559" gradientUnits="userSpaceOnUse">
      <stop stop-color="#00A478"/>
      <stop offset="1" stop-color="#fff" stop-opacity="0"/>
    </linearGradient>
  </defs>
</svg>
