<svg fill="none" xmlns="http://www.w3.org/2000/svg" viewBox="0 0 24 24">
  <mask id="hDKCKwAblfS1a" style="mask-type:alpha" maskUnits="userSpaceOnUse" x="0" y="0" width="24" height="24">
    <path fill="#D9D9D9" d="M0 0h24v24H0z"/>
  </mask>
  <g mask="url(#hDKCKwAblfS1a)">
    <path d="M11.998 13.05l-5.075 5.075a.736.736 0 01-.512.212.69.69 0 01-.538-.212.72.72 0 01-.225-.525c0-.2.075-.375.225-.525L10.948 12 5.873 6.925a.737.737 0 01-.212-.513.69.69 0 01.212-.537.72.72 0 01.525-.225c.2 0 .375.075.525.225l5.075 5.075 5.075-5.075a.74.74 0 01.513-.213.693.693 0 01.537.213.72.72 0 01.225.525.72.72 0 01-.225.525L13.048 12l5.075 5.075a.735.735 0 01.212.512.69.69 0 01-.212.538.72.72 0 01-.525.225.72.72 0 01-.525-.225l-5.075-5.075z" fill="#1D1B1E"/>
  </g>
</svg>
