<svg fill="none" xmlns="http://www.w3.org/2000/svg" viewBox="0 0 241 176">
  <g clip-path="url(#BTluaqe4gOXVa)">
    <path d="M15.6 134.64c-2.99-.82-5.85-1.83-8.74-2.3-1.86-.31-3.74-.89-5.6-.74-1.54.13-1.34-1.61-1.06-2.37.61-1.63.95-3.57 2.36-4.51.91-.61 1.58-2.42 2.14-3.89.36-.93.73-1.47 1.37-1.69.33-.11.79-.09.8-.86 0-.62-.38-.64-.65-.84-1.4-.98-1.73-3.29-.5-5.65-1.4.46-2.58.25-3.69.4-.76.11-1.49-.13-1.67-.79-.25-.93.61-1.51 1.05-1.71 1.61-.71 3-2.4 4.78-2.38.8.01 1.24-.71 1.73-2.2.94-2.88 1.16-5.94 1.64-8.9.62-3.8.49-7.75-.02-11.62-.13-1.01-.67-1.03-1.17-1.28-1.8-.88-3.67-1.78-4.76-4.39-.46-1.11-.7-2.5-1.15-3.72-.32-.88.16-2 .99-2.21 1.87-.48 3.73-.98 5.59-1.47.35-.09.71-.14 1.04-.34.27-.16.6-.39.59-.98 0-.52-.37-.47-.54-.71-1.14-1.7-2.95-1.25-4.02-3.33-.55-1.07-.95-2.08-.55-3.22.51-1.43 1.23-.44 1.87 0 .71.49 1.41.6 2.22.5 1.74-.22 3.52-.82 5.24.38.12.08.42-.02.43-.08.24-2.51 1.7-.96 2.58-1.98-.44-.33-.8-.6-1.15-.87.05-.19.06-.41.12-.44 3.85-2.07 7.73-3.84 11.78-4.94 4.23-1.15 8.52-1.15 12.74-2.32 1-.27 2.14 1.32 3.12-.46.12-.22.53-.05.62.43.16.9-.53.8-.69 1.35 1.07.36 1.13.38 1.29-1 .09-.75.37-.84.72-1 1.05-.5 2.13-.51 3.21-.48.2 0 .55.11.56.22.18 2.75 1.5.81 2.42 1.77-.3-1.37-1.14-.54-1.24-1.72 1.09.02 2.29-1.48 3.09 1.03.52-.41 0-2.13.82-1.93 1.25.3 2.6-.85 3.74.52 1.04 1.25 1 1.33 1.69-.33.29-.69 5.4-1.01 5.62-.23 1.01 3.56 2.68.54 3.95 1.31-.41-1.12-.99-.51-1.5-.61-.17-.03-.42-.29-.45-.51-.07-.52.22-.68.48-.66 3.06.22 6.14-.26 9.17.61.4.12.69-.07 1.03-.24.19-.1.52-.26.59-.14 1.54 3.01 3.26-.41 4.9.37 1.88.9 3.87.51 5.81.56 2 .05 3.99.36 5.99.41 2.17.05 4.43.53 6.47.22 3.16-.48 6.39.04 9.53-1.2 1-.4 2.13-.5 3.3.19.95.56 2.12-.78 3.26-.48 1.5.39 2.87-1.4 4.34-.89 2.63.91 5.01-1.92 7.49-1.22 2.17.61 4.32-1.01 6.49.56 1.02.74 2.61 1.63 3.5-1.02.07-.2.42-.38.56-.28 2.22 1.53 4.36-1.25 6.45-.39 1.71.7 3.72-.91 5.16 1.65.23.42.43.26.61-.13.94-1.93 2.3-1.01 3.47-1.1 1.16-.09.52 1.38.46 2.28 1.08.09 1.29-1.64 2.07-2.25 1.05-.81 2.55 1.13 3.22-1.41 0-.02.22.03.28.13 1.2 2.23 2.63 1.19 4.01.66.59-.22.98-.32 1.05.93.04.78.48 1.2.93 1.48.28.17.57.47.85.01.26-.43.2-.86-.01-1.3-.16-.33-.62-.63-.24-1.12.35-.45.64-.01.87.51.28.63.61 1.21.9 1.79.84-.42.02-3.14 1.54-2.55.77.3 1.61-1.33 2.38.16.07.14.41.07.58-.05 2.04-1.51 4.02-2.01 5.87.67.43.63.92.39 1.45.21 1.2-.41 2.41-.25 3.64-.01-.13 1.17-.9.35-1.14 1.34 1.71.78 3.49.01 5.19.48 0 1.09-.83.38-.82 1.45.73.56 1.33.47 1.84-.81.55-1.4 1.05-1.37 1.46.23.33 1.3.91.96 1.47.43.22-.21-.31-1.37.44-.93.27.16.58.52.52 1.08-.06.56-.21 1.13-.7 1.03-.27-.05-.51 0-.72.56.54 1.17 1.38 1.2 2.15.98 3.15-.91 6.32-.59 9.49-.49 1.01.03 1.96 0 2.48-1.75.4-1.34.87-.78.95.2.16 1.85 1.14 1.59 1.84 2.05.34.22.6.13.57-.6-.04-1.01.38-1.34.88-1.16.53.19.97.58 1.08-.72.03-.36.33-.33.51-.13.23.27.29.64.16 1.07-.16.53-.32 1.2.13 1.44.46.25.8-.3.9-.99.19-1.34.48-1.69 1.2-.61.31.47.8.73 1.24.89 1.18.44 2.58.24 2.68 3.11.01.41.7.89 1.12 1.11.65.34 1.25.7 1.68 1.59.15.3.38.57.6.69.53.27 1.27-1.7 1.62.2.34 1.88.67 3.99-1.02 4.87.25 1.21.99.54 1.37 1.32-.58 1.08-.19 2.79-.99 3.89-.22.31.1 1.02.22.83.53-.78 1.82.24 1.77-2-.02-1.08.81-1.52 1.38-1.44 1.08.14 2.11-.48 3.21-.13.89.28 1.84.18 2.76.24-.28 1.25.22 2.42.14 3.63-.06.96.37.87.67.89.78.07 1.57.02 2.47.02-.35 1.03-.83.75-1.18.98-.4.26-1.13.1-1.09.98.05.99.78.76 1.26.86 1.06.22 2.14.07 3.16.7.38.23.91.2.74 1.14-.15.81-.56.51-.88.24-.4-.34-.71-.2-.89.42-.5 1.68-1.69 2.29-2.51 2.46-2.66.56-5.09 2.54-7.82 2.78-.73.07-1.65 1.1-2.58 1.56-1.96.96-4.04 1.44-5.88 3.11-.58.53-1.44.04-2.13.79-.32.35-.62.53-.55 1.18.08.81.41.28.67.31.69.08.78.82.47 1.67-.09.25-.31.46-.5.54-.94.37-1.53 1.79-1.35 2.76.19.99 1.29.72 2.03.63.19-.03.38 0 .67.22-2.28.69-2.99 3.98-4.35 6.15-.79 1.26-.64 3.18-1.08 4.73-.99 3.49-2.52 5.49-4.28 5.28-.2-.02-.42-.02-.61-.11-1.68-.76-2.08-.32-2.2 2.47-.19 4.22-.21 4.11-2.82 5.57-1.97 1.1-3.92 2.15-6.03 2.27-.35.02-.65.11-.53.79.13.74.63 1.23.94.87 1.29-1.49 2.91 0 4.21-1.33.33-.35.84-.43 1.04.4.22.91-.31.97-.64 1.31-.87.89-1.91.43-2.9.92.37 1.28.9 1.33 1.62.93.73-.4 1.27-.59 1.75 1.14.59 2.12 2.1 1.07 3.61 1.22-.86-1.11-1.86-.93-2.19-2.25.28-.55.66-.4.99-.28.8.27 1.91 1.93 1.87-1.15 0-.06.06-.12.1-.18.67-1.08 1.88.54 2.41-1.22.57.62 1.23.87 1.67 1.96 1.07 2.62 1.38 5.48 1.32 8.45-.07 3.25.33 6.3 1.1 9.28.16.61-.94 5.6-1.3 5.98-.12.13-.3.27-.42.21-2.8-1.48-5.36.29-8.04 1.18-2.54.84-5.14 1.67-7.79 1.46-.65-.05-1.2-.18-1.18 1.41.02 1.62-.96 2.53-1.7 2.69-2.02.43-4.04 1.67-6.08 1.11-1.94-.53-3.63.66-5.42 1.16-.48.13-.89.32-1.31-.08-.61-.58-1.04-.52-1.6.32-.91 1.37-2.64.4-3.31 2.7-.09.3-.34-.08-.51-.23-1.36-1.22-2.72-.82-4.02.19-.57.44-.83.45-.99-.57-.04-.29-.16-.61-.3-.81-.35-.49-.75-.92-1.25-.68-.16.08-.36.39-.39.65-.14 1.05.61.88.85 1.45-1.12.85-1.78.25-2.24-2.06-.37-.05-.46.42-.4.77.44 2.88-1.18 3.05-2.13 3.57-1.38.75-.16-1.73-.87-2.13-.65.1-.57 1.21-.8 1.8-.42 1.05-.89 1.45-1.62 1.38-.34-.03-.82.33-.94-.38-.17-.95.38-.69.69-.73.37-.06.65-.42.53-.92-.21-.86-.57-.26-.86 0-.35.31-.71.54-.8 1.33-.27 2.25-1.18 1.93-2 .94-.91-1.1-1.65-1.07-2.79-.58-1.12.47-2.47 1.32-3.84-.4-.8-1.02-2.27-.13-3.45.63-.05-1 1.13-1.48.39-2.2-.46-.44-1.17-.05-1.45 1.13-.32 1.37-.84 2.35-1.5.42-.35-1.01-.73-.58-1.15-.44-.64.21-.56.6-.23 1.32.24.52-.13.66-.39.61-.49-.1-.74-.69-.71-1.36.02-.52-.16-1.46.49-1.44.28 0 .62.52.66-.34.02-.54-.3-.81-.57-1.05-.61-.57-1.23-.12-1.79.16-3.1 1.54-6.26 2.49-9.51 2.68-.83.05-1.62.47-1.94 1.91-.1.48.06 1.31-.5 1.19-.37-.08-.58-.71-.63-1.26-.06-.75-.23-1.1-.74-1.25-1.49-.44-1.76.02-1.37 2.49-.5.37-.84-.48-1.29-.41-.22.03-.56-.36-.61.28-.04.48.31 1.26-.36 1.14-.53-.09-.51-.86-.56-1.51-.05-.58.24-1.53-.32-1.64-.75-.14-.48.97-.56 1.59-.2 1.59-.14 1.43-1.1.64-.61-.5-1.4-.58-2.11-.6-.93-.04-1.85.22-2.15-1.74-.07-.43-.43-.79-.7-.16-.41.95-.98.51-1.47.58-.23-.8.87-.62.35-1.5-.46-.78-1.1.41-1.68-.42-.25-.35-.27.59-.27 1.02 0 .08.02.16.01.24-.04.85.32 1.87-.23 2.5-.68.77-.85-.96-1.53-.88-.2 1.23-.72 2.28-1.49 2.77-.56.36-1.46 1.18-1.48-.94 0-.77-.38-.88-.74-.98-.37-.1-.76-.09-.89.6-.15.74-.26 1.65-.87.81-.47-.65-1.16-1.52-.16-2.6-.56-.34-1.1-.64-1.51 0-.3.47.09 1.03.22 1.53.12.46.61 1.02.04 1.36-.51.3-.49-.56-.6-1.06-.05-.22-.13-.42-.29-.94-.41 2.07-1.92 1.4-2.06 1.17-1.11-1.9-2.25-.43-3.33-.3-.79.09-1.32.41-1.03-1.38.18-1.12-.5-.81-.81-.75-1.31.29-2.43 1.64-3.8 1.67-.19 0-.32.35-.28.74.25 2.49-.93 2.35-1.91 2.52-.4.07-.86-.2-1.21.02-2.77 1.77-5.79 1.01-8.61 2.15-.22.09-.55-.08-.49-.32.42-1.87-1.19-1.84-1.25-3.45-.03-.9-.97-.53-1.48-.32-1.03.41-2.05.86-3.42.42 1.57-1.36 3.26-1.11 4.4-3.08-1.34 1.03-2.76.39-4.16.65-2.16.39-4.38.95-6.59.56-.47-.08-.59-.55-.38-1.22.18-.56.36-1.11.55-1.7.46.18.59.87.79 1.38.46 1.14.88 1.29 1.38.09.62-1.51 1.54-2.43 2.64-2.6.89-.13 1.36-1.35 2.16-1.62.96-.33 1.93-.35 2.9-.88.77-.42 1.57-1 1.44-1.81-.19-1.14-1.06-1.92-1.98-1.72-.61.13-1.2.43-1.79.68-.42.17-.9.34-.95-.59-.04-.74.42-.77.78-.82.34-.05.68-.12 1.42-.25-2.05-1.47-3.66.87-5.34.09.59-2.79 2.49-.09 3.45-2.68-1.65.43-3.09-.79-4.45.92-.15.19-.37.36-.56.35-3.17-.2-6.14 2.18-9.34 1.71-.53-.08-1.12.22-1.34 1.41 2.06 1.17 3.94-.19 5.83-.89.54-.2 1-.82 1.58-.34.24.2.11.52.02.82-.35 1.21-1.01.83-1.61.79-1.49-.09-2.8 1.15-4.27 1.31 1.3.48 2.57.86 3.86.04.16 1.12-.33 1.17-.71 1.24-1.99.37-3.93 1.3-5.96 1.09-.4-.04-.82.06-1.21.21-.4.15-.74 1.29-1.18.46-.44-.83.4-1.31.47-2.2-.78-.37-1.48-.71-1.86.94-.08.33-.35.79-.52.79-1.41-.05-3.08.51-4.15-.49-1.3-1.22-1.56.29-2.58.9 1.12.51 1.81 1.02 2.77.46 1.37-.79 2.73 1 4.17.53.06-.02.24.32.26.51.04.38-.14.58-.36.6-.41.04-.82.05-1.23.05-2.65 0-5.3 0-7.93.62-.44.1-1.1.43-1.24-.36-.15-.89.37-1.68.91-1.97.56-.3 1.18-.3 2.03-.48-1.2-.9-2.22-1.48-3.36-1.29-.35.06-.73.06-.92.7-.17.58.37 1.73-.38 1.76-1.08.04-2.13.3-3.2.44-.35.05-.5-.63-.24-1.07.5-.81.64-2.22 1.65-2.22.52 0 1.1-.26 1.41-1.27-2.91 1.36-6.14.28-8.88 2.83-.29-2.18-1.07-2.87-2.69-2.21-.37.15-.75.37-.75 1.02 0 .84.51.55.83.65.37.11 1-.24.98.66-.02.85-.62.65-1.01.59-.48-.07-.9.05-1.34.35-.43.29-.85-.11-1.09-.62-.41-.9.52-.77.5-1.57-.57-.57-1.11-.24-1.61.38-1.97 2.48-3.44 1.72-4.07-2.16-.07-.46-.02-1.02-.3-1.31-1.37-1.4-1.21-3.11-.48-5.01.25-.66.29-1.46-.07-2.04-.55-.9-.49-1.85-.31-2.92.25-1.56-.41-2.91-1.46-2.82-2.63.21-5.2 1.15-7.77 1.98-1.28.42-2.5.12-3.64-.34-1.32-.53-.52-1.92 0-2.66 1.76-2.47 3.57-4.84 5.4-7.18.48-.62.97-1.17 1.31-2.26l-.03.03zm67.88 17.22c-.98-1.14-4.91-.62-5.98.64-.3.36-1.08.42-.72 1.43.21.59.72.34 1.12.06 1.71-1.2 3.55-1.57 5.58-2.13zm-23.01 7.59c-.66-.89-1.71.39-1.77-.84-.18-3.24-1.74-1.2-2.55-1.88-.22-.18-.48.21-.52.67-.04.57.18.9.49 1.08.47.28 1.16.3 1.4.83.97 2.15 1.88 1.08 2.96.14h-.01zm125.55-30.44c2.03.73 4.01-.41 6.02-.53.27-.02.54-.3.52-.74-.02-.67-.39-.61-.7-.58-1.98.21-3.9.99-5.84 1.85zm-137.9-71.8c-1.07-.36-2.11-1.28-3.22-.66-.29.16-.66.29-.56.91.09.62.47.49.77.42 1.01-.21 2.01-.44 3.01-.67zm-35.68 73.1c-.41.2-1.13-.31-1.06.51.09 1.24.95 1.22 1.6 1.32.41.07 1.03.04 1-.69-.08-1.62-1.07-.66-1.53-1.14h-.01zm68.43 38.07c.693 2.1 1.927 2.66 3.7 1.68-1.39.2-2.39-.93-3.7-1.68zM191.55 52.94c-.37.23-1.12-.21-1.13.96-.02 1.24.71.86 1.17.88.49.02 1.16.2 1.13-1.02-.03-1.09-.66-.72-1.17-.82zm-44.49 106.63c-.41.55-1.44-.39-1.46 1.21-.01.89.6.82 1.07.83.62.02 1.18-.22 1.29-1.23.12-1.01-.47-.75-.9-.82v.01zm-64.84-1.24c.42-.78 1.54.45 1.75-1.22.06-.46-.32-1.14-.73-.87-.6.41-1.51.12-1.71 1.51-.08.54.21.84.69.58zm1.05-4.55c1.43.7 3.13.2 3.92-1.11-1.34.09-2.58.27-3.92 1.11zm-72.98-23.02c-.46-1.73-2.06-.76-2.35-2.87-.69 4.18 1.83 1.39 2.35 2.87zm36.45 28.05c-.04-.7-.35-.83-.65-.76-.41.1-1-.12-1.04.91-.02.51.28.9.62.82.43-.09.93-.14 1.08-.97h-.01z" fill="#7A5AA6"/>
    <path d="M34.58 163.36c.39.18 1.06-.18 1.04.61-.04 1.27-.84 1.1-1.42 1.19-.35.06-.8.05-.75-.75.07-1.09.66-1 1.13-1.06v.01zm-5.79 1.83c.13-.34.18-.59.22-.58.83.06 2-.93 2.4.15.4 1.08-.61.88-1.09.84-.48-.04-.96-.25-1.54-.41h.01zm40.03 9.83c1.21-.68 2.41-.34 3.62-.07-1.21.43-2.41.68-3.62.07z" fill="#7A5AA6"/>
    <path opacity=".94" d="M39.95 56.44V36.12L214.6 49.31l-2.49 19.61h-8.91l-20.32 92.31-115.84-4.63" stroke="#231F20" stroke-width="3" stroke-linejoin="round"/>
    <path d="M123.48 42.56c-10.09 1.62-23.21-.84-30.64-8.28-5.51-5.62-8.24-15.29-6.2-22.9C89.21 3.21 96.43-.93 104.86.18c6.6.68 12.5 4.62 15.66 10.43.52 1.12 1.42 2.67 1.75 3.85 1.21 3.18 1.87 6.66 2.21 10.03.42 4.02.26 8.04-.07 12.06-.15 1.36-.7 4.64-.93 6.01zm-.28-.28c-1.27-14.46-2.23-36.96-20.65-38.7-6.03-.87-12.51 2.26-14.62 8.24-2.53 7.25 1.48 15.46 7.18 20.02 7.49 6.28 17.67 8.81 27.25 10.25.13 0 .7.11.85.12.06 0-.03.03-.01.07z" fill="#231F20"/>
    <path d="M119.18 41.49c.05-.04.04-.06.11-.06h.24c2.35-.08 4.85-.26 7.17-.55 9.16-1.22 21.33-3.67 25.86-12.54 2.12-4.42 1.07-9.58-.51-14.03-1.49-4.3-4.17-8.8-8.83-9.69-2.24-.41-4.64-.18-6.86.31-4.61.96-8.32 3.8-10.86 7.74-5.21 8.6-5.56 19.01-6.33 28.82h.01zm-.27.29c-1.68-10.44-2.02-21.5 3.19-31.19 4.39-7.79 13.32-11.31 21.94-9.43 5.83 1.36 9.22 6.99 10.77 12.23 1.61 5.15 2.44 10.97-.18 15.96-5.72 11.06-24.62 12.92-35.71 12.43h-.01z" fill="#231F20"/>
    <path d="M125.02 44.05c-13.85-14.55-34.45-21.67-54.3-20.56-6.56.34-13.06 1.45-19.39 3.2l-1.38-5.84c27.05-5.71 57.06 1.34 75.07 23.2z" fill="#231F20"/>
    <path d="M120.27 44.2c22.25-16.58 53.07-7.76 75.02 5.06l-3.19 5.08c-5.27-3.59-10.78-6.86-16.56-9.55-16.98-8.03-38.73-11.44-55.27-.6v.01z" fill="#231F20"/>
  </g>
  <defs>
    <clipPath id="BTluaqe4gOXVa">
      <path fill="#fff" d="M0 0h240.53v175.38H0z"/>
    </clipPath>
  </defs>
</svg>
