<svg fill="none" xmlns="http://www.w3.org/2000/svg" viewBox="0 0 193 188">
  <mask id="9kaChjq3r4yaa" style="mask-type:luminance" maskUnits="userSpaceOnUse" x="0" y="0" width="193" height="188">
    <path d="M192.15 81.19l-4.59-61L131.25 0 21.46 52.94.43 131.52l6.77 8.91c19.6 41.12 102.69 63.07 131.65 33.9 20.73-15.73 38.69-42.49 46.15-68.35l7.15-24.79z" fill="#fff"/>
  </mask>
  <g mask="url(#9kaChjq3r4yaa)">
    <path d="M123.31 39.78c-8.57 2.69-24.43 25.72-31.29 36.9C72.13 90.83-8.21 100.61 7.21 140.43c19.6 41.12 102.69 63.07 131.65 33.9 40.6-30.81 70.61-103.97 31.76-129.68-20.72-13.29-40.17-8.79-47.31-4.87z" fill="#EDF1FF"/>
    <path d="M56.91 177.8c3.84 1.43 6.17 7.9 10.07 9.12 6.99 2.18 15.61-1.12 22.7.37.15-2.98-.46-6.03-1.93-8.88-3.89-7.54-12.49-11.07-20.35-8.85-1.11.31-2.21.74-3.27 1.29-3.15 1.62-5.6 4.07-7.22 6.94v.01z" fill="#41A03A"/>
    <path d="M36.17 168.87c.1.05.19.1.29.14 2.49 1.22 5.01 2.4 7.55 3.52 4.24 1.89 8.55 3.64 12.9 5.26 3.84 1.43 7.72 2.76 11.62 3.98 1.07-3.94.78-8.26-1.13-12.21-.07-.14-.13-.28-.21-.42-2.7-5.24-7.67-8.54-13.09-9.32-3.49-.51-7.16.03-10.53 1.77a17.402 17.402 0 00-7.13 6.77c-.1.16-.19.33-.28.5l.01.01z" fill="#41A03A"/>
    <path d="M52.77 149.06c.41.89.75 1.8 1.02 2.71.4 1.43.61 2.89.64 4.33a17.3 17.3 0 01-.31 3.73c-.64 3.28-2.2 6.36-4.56 8.8-1.3 1.38-2.85 2.55-4.63 3.47-.3.15-.6.3-.91.43-.56-.25-1.11-.5-1.65-.76-1.31-.58-2.76 5.72-4.03 5.1-.68-.31-1.19-7.54-1.86-7.87l-.3-.15c-.11-.05-.22-.11-.32-.16-1.06-.52-1.92 4.97-2.96 4.43-1.17-.59-3.72-.28-4.88-.9-1.12-.61-1.03-8.15-2.14-8.78-2.18 4.41-.14-.08-.21-.11-.01 0-.02-.01-.03-.02-1.85-1.23-3.67-2.49-5.45-3.79.06-.03.14-.06.2-.08-.3-.2-.6-.42-.89-.63-.33-2.45-.12-4.92.56-7.24 1.31-4.44 4.36-8.36 8.8-10.65 4.14-2.13 8.73-2.46 12.88-1.27.72.2 1.44.47 2.12.77 1 .43 1.96.95 2.88 1.57.25.17.5.35.74.54 2.03 1.54 3.75 3.54 4.99 5.95.1.2.2.38.29.57l.01.01z" fill="#41A03A"/>
    <path d="M35.31 162.83c.69 1.81 1.06 3.67 1.14 5.52v.02c0 .22 0 .43.01.64l-.3-.15c-.11-.05-.22-.11-.32-.16-1.06-.52-2.11-1.05-3.15-1.59-1.17-.59-2.32-1.2-3.48-1.83-1.12-.61-2.24-1.21-3.34-1.83-.07-.03-.14-.08-.21-.11-.01 0-.02-.01-.03-.02-1.85-1.23-3.67-2.49-5.45-3.79.06-.03.14-.06.2-.08-.3-.2-3.4 1.92-3.69 1.7-1.67-1.18-.52-4.72-2.16-5.99-.91-.69-1.82-1.39-2.73-2.12.79-.34 1.59-.64 2.39-.86.97-.27 1.94-.46 2.92-.56.82-.08 1.65-.11 2.46-.08.17 0 .33.01.49.03 4.1.27 8.04 1.97 11.06 4.88.74.72 1.42 1.51 2.04 2.38.5.69.95 1.43 1.35 2.21.3.59.57 1.18.79 1.78l.01.01z" fill="#41A03A"/>
    <path d="M14.2 152.2c.2.99.32 1.98.34 2.97-.91-.69-1.82-1.39-2.73-2.12-.39-.3-.79-.63-1.18-.94-.51-.4-1.01-.81-1.51-1.22-.11-.09-.23-.18-.34-.27-.25-.14-4.68 3.68-4.93 3.48-.33-.26-8.32-7.98-8.54-8.26-4.24-3.55 3.57-3.77-.34-7.57 7.05-.83 14.19 2.7 17.63 9.38.76 1.47 1.29 3 1.6 4.54v.01z" fill="#41A03A"/>
    <path d="M71.59 183.48c2.96.78 5.48 7.65 8.47 8.27 5.35 1.1 11.18-4.22 16.55-3.64-.11-2.22-.79-4.44-2.09-6.45-3.44-5.31-10.08-7.3-15.75-5.07-.8.31-1.58.71-2.33 1.2a12.994 12.994 0 00-4.85 5.68v.01z" fill="#2D7F26"/>
    <path d="M55.55 178.39c.08.03.15.06.23.09 1.94.72 3.71 5.94 5.68 6.59 3.29 1.09 6.79-2.46 10.14-1.58 2.96.78 5.93 1.48 8.92 2.1.5-3-.03-6.19-1.74-8.98-.06-.1-.12-.2-.18-.29-2.39-3.69-6.32-5.77-10.4-5.96-2.63-.12-5.31.55-7.68 2.09a13.029 13.029 0 00-4.96 5.94h-.01z" fill="#2D7F26"/>
    <path d="M42.63 172.9c4.21 2.02 6.21 7.44 10.6 9.09.08.03 2.46-3.54 2.54-3.51 1.94.72 3.89 1.41 5.86 2.06.22-.12.43-.25.64-.39 3.5-2.27 5.56-5.93 5.91-9.79.26-2.82-.39-5.74-2.05-8.3-3.93-6.06-12.02-7.79-18.08-3.87-3.13 2.02-5.1 5.16-5.74 8.55-.38 2.02-.29 4.13.31 6.16h.01z" fill="#2D7F26"/>
    <path d="M35.26 169.11c1.1.6 2.2 1.19 3.32 1.77 1.34.69 1.04 4.93 2.4 5.59 4.21 2.02 10.17.28 14.57 1.93.08.03.15.06.23.09l-.06-.48c-.25-1.83-.9-3.64-1.97-5.29-2.59-4-6.99-6.11-11.42-5.96a13.01 13.01 0 00-7.06 2.37l-.01-.02z" fill="#2D7F26"/>
    <path d="M37.64 166.6a12.635 12.635 0 01.86 3.38c.04.22.06.46.06.69.01.07-1.47 6.84-1.47 6.91-1.12-.57-5.55-4.53-6.64-5.13-3.28-1.81-1.67-7.07-4.78-9.1-.01 0-3.5 2.86-3.52 2.85-1.85-1.23-.18-5.36-1.96-6.66.06-.03.14-.06.2-.08 5.15-2.2 11.19-.85 14.92 3.38.43.48.82 1 1.18 1.55.46.71.84 1.46 1.15 2.22v-.01z" fill="#2D7F26"/>
    <path d="M43.97 160.26c-.6 1.3-1.55 2.15-2.12 1.88-.57-.26-.54-1.53.07-2.84.6-1.3 1.55-2.15 2.12-1.88.57.26.54 1.53-.07 2.84zm-3.17-4.46c-.6 1.3-1.55 2.15-2.12 1.88-.57-.26-.54-1.53.07-2.84.61-1.31 1.55-2.15 2.12-1.88.57.26.54 1.53-.07 2.84zm-6.84.85c1.13.89 1.73 2.01 1.34 2.5-.39.49-1.62.17-2.74-.72-1.13-.89-1.73-2.01-1.34-2.5.39-.49 1.62-.17 2.74.72zm13.09-11.78c-.6 1.3-1.55 2.15-2.12 1.88-.57-.26-.54-1.53.07-2.84.6-1.3 1.55-2.15 2.12-1.88.57.26.54 1.53-.07 2.84zm-3.17-4.47c-.6 1.3-1.55 2.15-2.12 1.88-.57-.26-.54-1.53.07-2.84.61-1.31 1.55-2.15 2.12-1.88.57.26.54 1.53-.07 2.84zm-6.84.86c1.13.89 1.73 2.01 1.34 2.5-.39.49-1.62.17-2.74-.72-1.13-.89-1.73-2.01-1.34-2.5.39-.49 1.62-.17 2.74.72zm20.54 13.94c-.6 1.3-1.55 2.15-2.12 1.88-.57-.26-.54-1.53.07-2.84.6-1.3 1.55-2.15 2.12-1.88.57.26.54 1.53-.07 2.84zm-3.17-4.46c-.6 1.3-1.55 2.15-2.12 1.88-.57-.26-.54-1.53.07-2.84.6-1.3 1.55-2.15 2.12-1.88.57.26.54 1.53-.07 2.84zm-6.84.85c1.13.89 1.73 2.01 1.34 2.5-.39.49-1.62.17-2.74-.72-1.13-.89-1.73-2.01-1.34-2.5.39-.49 1.62-.17 2.74.72zm17.81 20.44c-.6 1.3-1.55 2.15-2.12 1.88-.57-.26-.54-1.53.07-2.84.6-1.3 1.55-2.15 2.12-1.88.57.26.54 1.53-.07 2.84zm-3.16-4.46c-.6 1.3-1.55 2.15-2.12 1.88-.57-.26-.54-1.53.07-2.84.6-1.3 1.55-2.15 2.12-1.88.57.26.54 1.53-.07 2.84zm-6.84.85c1.13.89 1.73 2.01 1.34 2.5-.39.49-1.62.17-2.74-.72-1.13-.89-1.73-2.01-1.34-2.5.39-.49 1.62-.17 2.74.72zm-35.97-16.47c-.6 1.3-1.55 2.15-2.12 1.88-.57-.26-.54-1.53.07-2.84.61-1.31 1.55-2.15 2.12-1.88.57.26.54 1.53-.07 2.84zm-3.17-4.46c-.6 1.3-1.55 2.15-2.12 1.88-.57-.26-.54-1.53.07-2.84.6-1.3 1.55-2.15 2.12-1.88.57.26.54 1.53-.07 2.84zm-5.5 3.34c-.3.38-1.1.28-1.97-.21a6.39 6.39 0 01-.77-.51c-.33-.26-.61-.53-.83-.81-.57-.67-.8-1.34-.52-1.69.39-.49 1.62-.17 2.75.72 1.12.89 1.73 2.01 1.34 2.5zm77.73 31.19c-.6 1.3-1.55 2.15-2.12 1.88-.57-.26-.54-1.53.07-2.84.61-1.31 1.55-2.15 2.12-1.88.57.26.54 1.53-.07 2.84zm-3.17-4.46c-.6 1.3-1.55 2.15-2.12 1.88-.57-.26-.54-1.53.07-2.84.61-1.31 1.55-2.15 2.12-1.88.57.26.54 1.53-.07 2.84zm-6.84.85c1.13.89 1.73 2.01 1.34 2.5-.39.49-1.62.17-2.74-.72s-1.73-2.01-1.34-2.5c.39-.49 1.62-.17 2.74.72z" fill="#5ACC50"/>
    <path d="M138.47 168.12c-3.3 2.43-6.66 4.77-10.08 7.02-6.12 4.02-12.41 7.73-18.81 11.12-.96-2.82-1.21-5.93-.59-9.06 1.66-8.32 8.96-14.08 17.13-14.1 1.15 0 2.32.11 3.5.34 3.47.69 6.5 2.37 8.85 4.69v-.01z" fill="#41A03A"/>
    <path d="M155.96 153.84c-.08.07-.16.15-.24.22-2.06 1.86 2.2 10.81.07 12.59-3.56 2.98-5.58 7.29-9.32 10.04-3.3 2.43-10.65 2.77-14.06 5.02-2.11-3.49-7.03-14.3-6.28-18.62.03-.15.05-.3.08-.46 1.15-5.78 5.03-10.32 10.02-12.56a17.43 17.43 0 0110.61-1.2c3.41.68 6.39 2.31 8.72 4.55.14.13.27.27.41.41l-.01.01z" fill="#41A03A"/>
    <path d="M169.34 140.61c-4.25 4.59-8.72 9-13.38 13.23-.08.07-.16.15-.24.22-2.06 1.86-4.16 3.68-6.29 5.46-.33-.05-.66-.1-.99-.17-5.49-1.1-9.86-4.64-12.21-9.28a17.492 17.492 0 01-1.55-11.35c1.9-9.5 11.13-15.66 20.63-13.76 4.9.98 8.91 3.91 11.38 7.82 1.47 2.33 2.4 5.01 2.65 7.83z" fill="#41A03A"/>
    <path d="M176.66 132.25c-1.07 1.29 2.34 6.19 1.24 7.46-1.33 1.53-4.12 8.19-5.49 9.68-4.25 4.59-11.79.23-16.45 4.45-.08.07-.16.15-.24.22-.06-.21-.11-.41-.16-.63-.59-2.41-.67-4.98-.15-7.57 1.25-6.26 5.69-11.07 11.29-13.08 1.84-.66 3.79-1.01 5.81-1.02 1.16 0 2.35.1 3.53.34.21.04.43.09.63.14l-.01.01z" fill="#41A03A"/>
    <path d="M190.44 112.58c.27 9.9-6.3 16.65-11.42 22.85-1.07 1.29-4.51-.61-5.62.66-.48-1.38-.78-2.84-.9-4.33-.12-1.57-.03-3.18.29-4.81 1.72-8.59 9.17-14.74 17.65-14.37z" fill="#41A03A"/>
    <path d="M125.92 177.63c-2.63 1.56-1.1 9.27-3.8 10.69-4.84 2.53-13.05 4.84-18.05 6.88-.5-2.17-1.39-10.72-.7-13 1.85-6.05 7.69-9.79 13.75-9.2.86.08 1.72.25 2.57.51 2.53.77 4.65 2.24 6.22 4.13l.01-.01z" fill="#2D7F26"/>
    <path d="M139.95 168.31c-.07.05-.13.1-.2.14a178.48 178.48 0 01-5.07 3.59c-2.86 1.95-2.57 10.14-5.55 11.91-2.63 1.56-7.86 3.37-10.56 4.79-1.31-2.75-2.33-12.61-1.45-15.76.03-.11.06-.22.1-.33 1.28-4.2 4.49-7.29 8.36-8.59 2.49-.84 5.26-.93 7.96-.11 2.48.76 4.57 2.18 6.13 4.02l.27.33.01.01z" fill="#2D7F26"/>
    <path d="M150.85 159.48c-3.49 3.09-7.13 6.04-10.91 8.83-.07.05-.13.1-.2.14a178.48 178.48 0 01-5.07 3.59c-.24-.06-.48-.12-.72-.2a13.06 13.06 0 01-8.69-16.32c2.11-6.91 9.42-10.8 16.32-8.69a13.07 13.07 0 017.87 6.64c.92 1.84 1.41 3.89 1.39 6l.01.01z" fill="#2D7F26"/>
    <path d="M161.18 157.03c-.89.88-3.32.81-4.23 1.67-1.1 1.03.08 5.73-1.05 6.73-3.49 3.09-12.17.08-15.94 2.87-.07.05-.13.1-.2.14-.03-.16-.05-.32-.08-.48a13.062 13.062 0 0114.17-14.83c.86.08 1.73.25 2.6.51.15.05 4.58 3.32 4.73 3.37v.02z" fill="#2D7F26"/>
    <path d="M168.76 140.47c-3.62 4.67-6.04 10.75-10.3 14.97-.89.88-3.35.12-4.26.98-.25-1.06-.37-2.16-.35-3.28.02-1.17.21-2.36.57-3.54 1.91-6.25 8.07-10.03 14.34-9.13z" fill="#2D7F26"/>
    <path d="M140.51 156.49c-.12 1.43-.73 2.55-1.35 2.49-.62-.06-1.03-1.26-.9-2.69s.73-2.55 1.35-2.49c.62.06 1.03 1.26.9 2.69zm-4.5-3.12c-.12 1.43-.73 2.55-1.35 2.49-.62-.06-1.03-1.26-.9-2.69s.73-2.55 1.35-2.49c.62.06 1.03 1.26.9 2.69zm-6.14 3.13c1.36.45 2.31 1.3 2.11 1.89-.2.59-1.46.71-2.83.25-1.36-.45-2.31-1.3-2.11-1.89.2-.59 1.46-.71 2.83-.25zm24.69-17.86c-.12 1.43-.73 2.55-1.35 2.49-.62-.06-1.03-1.26-.9-2.69s.73-2.55 1.35-2.49c.62.06 1.03 1.26.9 2.69zm-4.5-3.12c-.12 1.43-.73 2.55-1.35 2.49-.62-.06-1.03-1.26-.9-2.69s.73-2.55 1.35-2.49c.62.06 1.03 1.26.9 2.69zm9.624-8.929c.125-1.431-.278-2.634-.9-2.689-.622-.054-1.227 1.062-1.351 2.492-.125 1.431.278 2.635.9 2.689.621.054 1.227-1.062 1.351-2.492zm19.086-5.141c-.12 1.43-.73 2.55-1.35 2.49-.62-.06-1.03-1.26-.9-2.69s.73-2.55 1.35-2.49c.62.06 1.03 1.26.9 2.69zm-34.85 17.2c1.36.45 2.31 1.3 2.11 1.89-.2.59-1.46.71-2.83.25-1.36-.45-2.31-1.3-2.11-1.89.2-.59 1.46-.71 2.83-.25zm28.52-9.32c1.36.45 2.31 1.3 2.11 1.89-.2.59-1.46.71-2.83.25-1.36-.45-2.31-1.3-2.11-1.89.2-.59 1.46-.71 2.83-.25zm-59.96 46.52c-.12 1.43-.73 2.55-1.35 2.49-.62-.06-1.03-1.26-.9-2.69s.73-2.55 1.35-2.49c.62.06 1.03 1.26.9 2.69zm7.08-10.97c-.12 1.43-.73 2.55-1.35 2.49-.62-.06-1.03-1.26-.9-2.69s.73-2.55 1.35-2.49c.62.06 1.03 1.26.9 2.69zm-6.14 3.13c1.36.45 2.31 1.3 2.11 1.89-.2.59-1.46.71-2.83.25-1.36-.45-2.31-1.3-2.11-1.89.2-.59 1.46-.71 2.83-.25z" fill="#5ACC50"/>
    <mask id="9kaChjq3r4yab" style="mask-type:luminance" maskUnits="userSpaceOnUse" x="50" y="25" width="116" height="285">
      <path d="M165.88 25.05H50.39v284.1h115.49V25.05z" fill="#fff"/>
    </mask>
    <g mask="url(#9kaChjq3r4yab)">
      <path d="M100.77 179.84v.03h-.44l-.16-.01h-.27v-.02l-23.9-.76-8.45 103.08c-.06.89.72 1.68 1.75 1.77l17.41 1.45c1.01.08 1.89-.53 2.01-1.4l12.63-93.4 4.26 96.05c.04.89.87 1.6 1.89 1.6l19.49-.03c1.03 0 1.87-.73 1.89-1.65L127.76 179l-26.88.86h-.1v-.02h-.01z" fill="#29292C"/>
      <path d="M74.48 188.21c-1.22-1.81-2.65-3.48-3.83-5.33 0 0 .39-3.04-1.61-5.64l.2-28.17 3.94-19.39-14.53-9.41-2.9 17.42a99.28 99.28 0 00-1.27 19.86l.66 17.76.59 8.79s3.64 20.42 11.4 16.5c0 0 3.01-.7 2.61-2.4-2.43-10.27-2.05-12.4-2.05-12.4-.02.43 1.03 1.55 1.29 1.9.49.65 1.02 1.26 1.67 1.75 1.1.84 2.63 1.02 3.72.01.19-.17.36-.39.36-.65 0-.23-.13-.43-.26-.62v.02h.01z" fill="#FFBA94"/>
      <path opacity=".37" d="M69.2 128.4l1.21 14.9 2.83-13.08-4.04-1.82z" fill="#FF8571"/>
      <path d="M132.81 114.7l16.1-13.09-.38-.62-11.87-19.21-17.24 4.99c-4.73-.98-12.61-2.53-14.81-2.53h-8.54c-3.2 0-13.05 1.55-13.05 1.55l-5.69 1.4c-3.39.83-6.61 2.34-9.29 4.58-3.43 2.88-5.85 6.67-6.44 11.29l-4.59 19.8 16.36 7.4-1.87 47.32c-.03.73.54 1.35 1.28 1.37l.52.02 26.6.85v.03h.87v-.03h.1l26.88-.86h.38c.6-.03 1.07-.54 1.05-1.14l-.23-59.77 1.56-1.5 2.3-1.87v.02z" fill="#9FB1FD"/>
      <path opacity=".53" d="M73.39 129.17l2.88-14.92-1.08 16.34-2.57 18.52.77-19.94zm48.44-21.36h-8.39c-.23 0-.41.18-.41.41v1.07c0 .23.18.41.41.41h8.39c.23 0 .41-.18.41-.41v-1.07c0-.23-.18-.41-.41-.41zm18.3.94l-14.4 7.85 3.16 22.85.06-21.38 11.18-9.32z" fill="#7E91F8"/>
      <path d="M109.96 85.79H90.52v94.08h19.44V85.79z" fill="#F7EEE6"/>
      <path d="M89.51 85.79c0 6.68 5 12.09 11.17 12.09s11.17-5.41 11.17-12.09c0-.8-.07-1.59-.21-2.35-.5-2.75-21.38-2.86-21.9-.09-.15.79-.23 1.6-.23 2.44z" fill="#F9E5C5"/>
      <path d="M164.73 34.54c-.7-.12-1.37.38-1.56 1.07l-.91 3.39c-.16.59-.94.72-1.28.21-.29-.43-.43-.94-.41-1.46l.36-7.8c.04-.8-.62-1.47-1.44-1.43-.71.04-1.26.66-1.29 1.38l-.35 7.51c-.03.56-.5.99-1.06.97a.881.881 0 01-.84-.79l-.92-8.36c-.09-.8-.84-1.36-1.65-1.18-.7.15-1.14.85-1.06 1.56l.95 8.59c.04.36-.2.68-.56.74l-.21.04a.66.66 0 01-.72-.4l-2.6-6.39c-.29-.71-1.14-1.18-1.9-1.05-.7.28-1.03 1.08-.75 1.78 0 0 3.73 9.17 3.75 9.2.23.76.4 1.71.2 2.6-.14.61-.97.7-1.26.15-.69-1.32-1.75-3.33-1.75-3.33a1.37 1.37 0 00-1.97-.5c-.6.39-.75 1.21-.41 1.84l1.84 3.49s1.33 4.54 3.79 6.87l-2.39 8.17-5.38 18.36-6.32 2.02L148.5 101l1.46-1.28a27.174 27.174 0 009.16-17.55l1.74-27.61c.83-1.9 2.18-5.56 3.11-10.89l1.83-7.45a1.36 1.36 0 00-1.1-1.7l.03.02zm-35.78 83.53l3.86-3.37-3.92 3.19.06.18z" fill="#FFBA94"/>
      <path opacity=".37" d="M142.97 79.78l5.38 1.58-4.57-4.33-.81 2.75z" fill="#FF8571"/>
      <path d="M153.73 48.27h-.04a.375.375 0 01-.33-.42c.1-.88-.07-1.56-.51-2.02-.82-.85-2.31-.74-2.32-.74a.365.365 0 01-.4-.34c-.02-.21.14-.39.34-.4.08 0 1.86-.14 2.92.97.61.63.85 1.51.71 2.63a.37.37 0 01-.37.33v-.01z" fill="#FF8571"/>
      <path d="M121.42 42.5c-.18-.83-.68-1.57-1.3-2.18-.81-.8-1.85-1.4-2.97-1.67-1.92-.46-3.96.05-5.67.88-.88.43-1.19-.52-1.15-1.15.09-1.31-.36-2.47-1.56-3.21-1.5-.93-3.89-1.38-5.47-.48-1.16.67-1.92 1.81-2.84 2.73-1.28 1.29-3.2 1.7-4.95 2.11-1.48.34-3.12.31-4.64.25-5.22-.19-9.71 4.42-7.66 12.74l1.22 3.82v.04c.24.64.68 1.18 1.23 1.58l-.05 4.64a6.97 6.97 0 006.9 7.04l16.25.16c3.85.04 7-3.05 7.04-6.9l.05-5c.92-3.73 1.82-9 1.82-9 .01.02 1.47-1.24 1.55-1.33.76-.76 1.46-1.64 1.89-2.63.33-.77.48-1.62.3-2.44h.01z" fill="#5A1103"/>
      <path d="M113.98 57.65h-.3l-.91 2.25.11-8.83c-6.62 2.6-17.57-1.85-21.53-3.65-.69-.31-1.47.2-1.47.96 0 8.24-1.94 11.82-1.94 11.82-.17-.86-.29-1.81-.36-2.81h-.35c-2.32-.03-4.22 1.84-4.25 4.16a4.215 4.215 0 004.16 4.25h.71l-.04 3.71c-.04 3.82 1.86 7.21 4.78 9.24v6.78c0 4.4 3.56 7.96 7.96 7.96s7.96-3.56 7.96-7.96v-6.89c2.76-2 4.57-5.22 4.61-8.88v-.18c.15-.7.23-1.42.24-2.16v-1.37h.53c2.32.02 4.22-1.84 4.25-4.16a4.215 4.215 0 00-4.16-4.25v.01z" fill="#FFBA94"/>
      <path d="M86.08 62.72c-.08 0-.17-.03-.22-.1-.11-.12-.09-.31.03-.42l.79-.69-1.21-1.41c-.11-.12-.09-.31.03-.42.12-.11.31-.09.42.03l1.6 1.86-1.24 1.07a.28.28 0 01-.19.07h-.01v.01zm28.91.18a.27.27 0 01-.2-.08l-1.22-1.1 1.63-1.83a.3.3 0 01.42-.02c.12.11.13.3.02.42l-1.24 1.39.78.7c.12.11.13.3.02.42-.06.07-.14.1-.22.1h.01z" fill="#FF806D"/>
      <path opacity=".57" d="M102.02 73.84a.31.31 0 01-.22-.09c-.84-.9-1.99-.41-2.03-.39-.15.06-.32 0-.39-.15s0-.32.15-.39c.54-.24 1.81-.45 2.71.53a.3.3 0 01-.22.5v-.01z" fill="#FF806D"/>
      <path d="M92.57 54.75c.42.13.93.02 1.44-.06.5-.09 1.01-.17 1.46-.22.44-.05.96-.09 1.47-.12.51-.04 1.03-.05 1.41-.27.36-.21.47-.7-.05-1.22-.49-.51-1.66-1-3.13-.83-1.47.17-2.5.91-2.84 1.52-.37.63-.15 1.08.25 1.2h-.01zm17.2 4.45c-.42.13-.93.02-1.44-.06-.5-.09-1.01-.17-1.45-.22-.44-.05-.96-.09-1.47-.12-.51-.04-1.03-.05-1.41-.27-.36-.21-.46-.7.06-1.22.49-.51 1.67-.99 3.14-.82 1.47.18 2.49.92 2.83 1.53.37.63.14 1.08-.26 1.2v-.02z" fill="#703127"/>
      <path d="M100.2 68.71c-3.79 0-5.17-2.75-5.19-2.78-.07-.15 0-.32.14-.39.15-.07.32-.01.4.14.07.13 1.68 3.29 6.49 2.24.16-.03.32.07.35.23.03.16-.07.32-.23.35-.72.16-1.37.22-1.96.22v-.01z" fill="#FF806D"/>
      <path d="M97.15 59.54a.942.942 0 01-.54 1.22c-.48.18-1.04-.06-1.22-.54-.18-.48.06-1.04.54-1.22a.942.942 0 011.22.54z" fill="#703127"/>
      <path d="M97.19 61.4c-.05 0-.11 0-.15-.04-.94-.57-1.7-.17-1.73-.15-.14.08-.32.03-.4-.11a.294.294 0 01.11-.4c.04-.02 1.08-.6 2.33.16.14.09.18.27.1.41-.06.09-.15.14-.25.14l-.01-.01z" fill="#FF806D"/>
      <path d="M107.48 61.16s-.11-.01-.15-.04c-.94-.57-1.7-.17-1.73-.15-.14.08-.32.03-.4-.11a.294.294 0 01.11-.4c.04-.02 1.08-.6 2.33.16.14.09.18.27.1.41-.06.09-.15.14-.25.14h-.01v-.01z" fill="#4E180C"/>
      <path d="M101.04 63.95h-.12l-1.54-.09c-.16 0-.29-.15-.28-.31.01-.16.16-.3.31-.28l1.54.09c.45.03.88-.17 1.23-.54.36-.39.58-.94.62-1.53v-.17c.04-.46-.22-.86-.57-.88-.51-.03-.98-.3-1.31-.76-.32-.44-.47-1.01-.44-1.6l.16-2.49c.01-.16.17-.29.31-.28a.3.3 0 01.28.31l-.16 2.49c-.03.45.09.88.33 1.21.22.31.53.5.86.52.67.04 1.18.71 1.13 1.5v.17c-.05.73-.33 1.4-.78 1.9-.44.48-1 .74-1.58.74h.01z" fill="#FF806D"/>
      <path opacity=".46" d="M102.3 78.27l-3.4-.03c-6.05-.06-10.91-5.01-10.85-11.06v-1.37h-.2l-.04 3.71c-.05 4.74 2.89 8.81 7.06 10.45.77 2.38 2.99 4.11 5.62 4.13 2.69.03 4.98-1.73 5.76-4.16a11.13 11.13 0 006.87-10.16v-.18c-1.05 5-5.52 8.73-10.83 8.68h.01v-.01z" fill="#FF8571"/>
    </g>
    <path d="M53.84 108.23c0 .21-.01.43-.02.64-.05.29-.09.58-.14.87-.1.26-.2.52-.33.77-.14.26-.29.5-.49.72-.21.23-.45.41-.72.56-.07.03-.15.05-.22.08-.31.08-.62.09-.93 0-.28-.1-.51-.27-.74-.45-.21-.21-.41-.43-.59-.66-.1-.14-.19-.28-.29-.43-.08-.13-.15-.26-.23-.39-.15-.31-.31-.62-.46-.92V109c-.15-.3-.32-.59-.54-.85-.17-.24-.37-.44-.63-.59-.24-.18-.51-.25-.8-.29-.35-.06-.69-.01-1.01.14-.03 0-.06.01-.08.03-.29.13-.52.31-.69.58-.19.22-.3.47-.35.76-.05.18-.06.36.12.49.19.14.44.09.56-.14.06-.29.16-.56.35-.79.05-.04.09-.08.14-.11.47-.33.95-.3 1.43-.03.06.06.13.11.19.17.14.18.28.36.42.53.15.28.31.56.46.84 0 .02 0 .04.02.05.14.3.28.6.47.88.31.54.68 1.03 1.18 1.41.23.18.46.35.75.44.28.14.59.18.9.15.09.01.18 0 .26-.03.51-.07.95-.31 1.35-.64 0 .13.01.24.02.34-.04.43-.1.85-.25 1.25-.06.16-.13.31-.2.47-.11.17-.22.35-.34.52l-.13.17c-.2.22-.41.42-.63.61-.26.2-.56.35-.85.52h-.07c-.64.26-1.29.33-1.97.23-.28-.05-.55-.13-.82-.23a4.99 4.99 0 01-.76-.4c-.23-.16-.45-.34-.67-.53-.15-.17-.32-.32-.46-.51-.05-.06-.08-.15-.16-.17 0 0 0-.05-.01-.07-.19-.28-.33-.57-.47-.88-.04-.12-.08-.23-.12-.35-.04-.21-.08-.42-.13-.63-.01-.06-.03-.13-.09-.17-.13-.15-.27-.18-.43-.1-.19.09-.25.23-.19.47.02.19.06.38.12.56.04.21.11.41.21.6.05.16.12.32.22.46.14.29.31.56.52.8.04.07.09.13.15.18.13.17.28.33.46.46.05.07.12.12.19.17.07.04.08.09.04.16-.07.12-.13.26-.2.38-.15.25-.28.5-.4.77-.04.07-.08.13-.11.2-.11.25-.3.36-.57.32a.587.587 0 01-.33-.36c-.06-.15-.13-.29-.2-.43-.07-.16-.14-.31-.21-.47-.06-.17-.14-.34-.22-.5-.13-.29-.25-.58-.38-.87-.15-.34-.33-.67-.58-.96-.36-.49-.81-.88-1.33-1.19-.25-.13-.49-.26-.74-.39s-.49-.26-.74-.39c-.26-.13-.51-.27-.77-.4-.25-.13-.49-.26-.74-.39l-.56-.29c.66-.09 1.27-.27 1.8-.66.17-.1.31-.22.44-.36.1-.08.19-.17.27-.28.2-.2.36-.44.5-.68.15-.25.28-.51.35-.79.1-.25.17-.5.2-.77 0-.02.01-.04.02-.06.06-.29.11-.58.13-.88.05-.3.11-.6.16-.89.08-.27.16-.54.29-.79.13-.26.32-.49.53-.7.26-.2.53-.38.84-.5h.02c.35-.11.71-.16 1.08-.15.16.02.32.1.49 0 .17-.09.24-.22.2-.4-.04-.19-.16-.28-.38-.3-.02 0-.04-.02-.06-.02-1.11-.12-2.07.2-2.85 1-.2.21-.37.43-.48.69-.15.25-.25.52-.32.81-.09.28-.15.56-.17.85-.04.15-.06.3-.07.45-.04.15-.06.3-.06.45-.07.29-.11.59-.2.87-.08.27-.22.51-.34.76-.15.22-.31.44-.49.64-.19.18-.39.35-.6.5l-.15.09c-.1.04-.19.09-.29.13-.53.22-1.08.25-1.64.15-.27-.07-.54-.16-.8-.28-.26-.14-.5-.29-.74-.46-.21-.19-.42-.39-.64-.58-.09-.12-.2-.24-.31-.34-.1-.12-.19-.25-.29-.37-.19-.27-.35-.55-.49-.85-.02-.04-.03-.08-.05-.12-.11-.35-.2-.7-.27-1.06V106c-.03-.33-.04-.67-.03-1 .06-.57.19-1.13.43-1.65.12-.25.27-.49.42-.72.06-.08.12-.17.19-.25l.39-.42c.23-.21.47-.4.72-.57.17-.12.38-.19.54-.33.13 0 .23-.09.34-.13.28-.1.56-.18.84-.26.13-.02.26-.05.38-.07.2-.02.39-.04.59-.05h.17c.25 0 .51 0 .76.06-.02.02-.03.04-.05.06-.16.14-.31.29-.43.47-.2.21-.35.44-.49.68-.15.24-.28.48-.38.74-.12.29-.22.58-.25.89-.03.06-.03.12-.03.19-.04.23-.05.46-.02.69 0 .15.02.3.06.45.03.13.11.21.25.23.25.07.43-.06.46-.33.01-.15-.03-.29-.05-.44v-.48c.06-.29.12-.58.22-.86.12-.25.25-.5.37-.74.15-.25.34-.47.52-.71.21-.2.41-.41.62-.61.03-.03.07-.06.1-.09.23-.16.46-.31.7-.47.22-.1.44-.21.66-.31.1-.04.21-.07.31-.11l.83-.2c.15 0 .29-.04.43-.08.19.04.38 0 .57-.02.62-.01 1.23.05 1.84.16.27.08.54.16.81.25.27.11.53.23.8.34l.72.41c.25.17.47.36.68.56.1.12.2.25.29.37.08.14.15.28.23.43.09.24.15.48.19.74.02.3 0 .59-.13.87-.12.26-.3.48-.53.66-.27.18-.56.29-.88.34-.1 0-.2 0-.3.01-.18.03-.31.14-.33.3-.02.18.05.3.23.38.06.05.13.04.21.04.62 0 1.16-.21 1.65-.59.05.14.07.29.14.41.02.04.03.09.05.13.26.52.63.91 1.18 1.12.16.09.33.14.51.16.09.04.18.04.27.05.23.02.4-.11.43-.32a.383.383 0 00-.34-.41c-.16-.02-.32-.06-.48-.09-.28-.11-.51-.29-.71-.51-.06-.09-.11-.18-.17-.27-.11-.26-.18-.53-.2-.81v-.28c.05-.29.13-.57.13-.86.03-.28 0-.55-.08-.82 0-.07-.02-.13-.05-.19-.05-.23-.16-.45-.28-.68.23.11.38.29.57.4l.6.54c.44.45.85.92 1.22 1.43.39.57.72 1.18.99 1.82 0 .03 0 .06.03.09.1.33.21.67.31 1 0 .05 0 .09.03.13.05.34.1.67.14 1.01 0 .11.01.23.02.34v.01zm86.31 8.79c.1.06.2.12.3.17l.38.29c.1.11.2.23.28.35.09.13.17.27.22.42.06.16.08.32.08.49 0 .04-.01.08-.02.13a.9.9 0 01-.24.45c-.12.11-.26.18-.4.24-.15.05-.31.09-.47.11-.09 0-.18.02-.28.03h-.25c-.19 0-.37 0-.56-.01h-.01c-.18 0-.37 0-.55.04-.16.02-.31.07-.44.15-.15.07-.25.18-.34.31-.12.15-.18.33-.19.52 0 .02-.01.03 0 .05-.01.17.02.33.1.48.06.15.15.27.27.36.08.07.16.12.26.07.12-.06.15-.19.08-.3a.958.958 0 01-.29-.37c0-.03-.01-.06-.02-.1-.04-.31.1-.53.35-.69.04-.02.09-.03.13-.05l.36-.06h.55c.18.01.36.02.54 0 .34 0 .67-.06.98-.2.15-.06.29-.13.4-.25.14-.1.24-.23.3-.39.03-.04.04-.08.05-.13.1-.26.1-.53.04-.81.06.03.12.05.17.08.2.13.38.26.54.44.06.07.12.14.17.21.05.1.11.2.16.29l.05.11c.05.15.1.3.13.46.03.18.02.36.03.54 0 0-.01.03-.01.04-.04.37-.17.7-.39 1-.1.12-.2.23-.32.33s-.25.19-.39.26-.28.13-.42.18c-.12.03-.24.07-.36.09-.04 0-.09 0-.12.03 0 0-.03-.01-.04-.01-.18.02-.36.01-.54 0l-.2-.03c-.11-.03-.22-.07-.33-.1-.03 0-.07-.02-.11 0-.11.02-.16.08-.16.18 0 .11.05.18.18.21.1.04.2.07.3.08.11.03.22.05.34.05.09.02.18.02.27.01.17 0 .35 0 .51-.05.04 0 .09 0 .12-.03.12-.02.23-.05.33-.1.05 0 .09-.03.13-.05.04-.02.06-.02.09.02.04.07.09.13.13.19.08.13.17.26.26.39.02.04.04.07.07.1.09.12.1.24 0 .36-.08.06-.16.08-.26.07-.09-.01-.17-.01-.26-.02-.09 0-.18-.01-.28-.02-.1-.01-.2-.02-.3-.02-.17-.01-.34-.03-.52-.04-.2-.01-.4-.01-.6.03-.33.04-.63.16-.91.33l-.37.25-.37.25c-.13.09-.26.18-.39.26l-.37.25-.28.19c.13-.34.19-.68.14-1.03 0-.1-.02-.2-.06-.3a.664.664 0 00-.06-.2c-.05-.15-.12-.28-.2-.41-.08-.14-.17-.26-.29-.37-.09-.11-.2-.21-.32-.29l-.02-.02c-.12-.1-.25-.2-.39-.28-.13-.1-.26-.2-.39-.31-.11-.11-.22-.21-.3-.34-.09-.13-.15-.28-.2-.43-.03-.17-.04-.35-.02-.53v-.01c.03-.2.1-.38.2-.55.05-.07.13-.13.13-.23 0-.11-.04-.17-.14-.2s-.18 0-.24.1c0 0-.02.01-.02.02-.34.5-.43 1.04-.25 1.62.05.15.11.29.21.41.08.14.19.26.31.36.11.11.23.21.36.3.06.06.13.11.2.15.06.06.13.1.2.15.12.11.25.2.37.32.11.11.19.24.28.36.07.13.13.26.18.4.04.14.07.27.08.42v.1c0 .06 0 .12-.01.17-.03.31-.16.58-.35.82-.1.11-.21.22-.34.31-.13.09-.27.17-.41.24-.15.05-.29.1-.44.16-.08.01-.16.03-.24.06-.08.01-.17.03-.25.04-.18.02-.35.03-.53.02h-.07c-.2-.03-.39-.08-.58-.14 0 0-.02-.02-.03-.01-.17-.07-.33-.15-.49-.24-.26-.17-.49-.38-.68-.63-.09-.12-.16-.25-.24-.38-.02-.05-.05-.1-.07-.15-.03-.1-.07-.2-.1-.3-.04-.16-.07-.32-.09-.49-.01-.11 0-.23-.02-.34.03-.06.02-.13.02-.2.02-.16.05-.31.09-.47l.06-.2.12-.3c.01-.03.03-.05.04-.08.07-.12.13-.24.22-.35 0 .01 0 .03.01.04.03.11.06.22.12.32.05.15.12.28.2.41.07.13.16.26.26.37.11.13.22.25.36.35.02.03.05.05.08.06.1.08.21.14.33.18.07.04.15.07.23.09.07.02.13 0 .18-.06.1-.1.08-.22-.04-.3-.07-.04-.15-.06-.22-.09-.08-.04-.15-.08-.23-.13-.13-.1-.25-.21-.36-.32-.09-.12-.17-.25-.26-.37-.08-.14-.14-.28-.21-.43-.04-.15-.09-.3-.13-.45 0-.02-.01-.05-.02-.07-.02-.15-.03-.3-.05-.45 0-.13.01-.26.02-.4 0-.06.02-.12.03-.18l.12-.45c.04-.07.05-.15.07-.23.07-.08.09-.18.14-.28.15-.3.34-.58.55-.84.11-.11.22-.22.32-.33.12-.1.25-.2.37-.29l.38-.24c.14-.08.29-.13.44-.18.08-.02.17-.03.25-.05h.26c.14.02.27.05.4.1.15.07.28.15.39.28.09.13.15.27.18.42.02.17 0 .34-.06.51-.02.05-.05.1-.07.15-.03.09-.01.18.06.23.08.06.16.05.24 0 .04-.02.06-.05.07-.09.15-.3.2-.61.14-.94.08.01.16.04.23.04h.07c.31 0 .6-.07.84-.28.08-.06.15-.12.21-.2.04-.03.06-.08.09-.12a.2.2 0 00-.05-.29c-.09-.06-.21-.04-.28.06-.05.07-.11.14-.17.21-.12.1-.27.17-.42.21-.06 0-.11 0-.17.01-.15-.01-.3-.05-.44-.11-.04-.03-.09-.05-.13-.08-.13-.09-.24-.21-.38-.28a1.28 1.28 0 00-.42-.17c-.03-.02-.07-.02-.1-.02-.13-.03-.25-.04-.4-.04.11-.08.23-.11.34-.17.14-.05.28-.1.41-.15.33-.1.66-.17 1-.22.37-.04.75-.04 1.12 0 .02 0 .03.01.05 0 .19.04.37.07.56.11.02.01.05.02.07.02.17.06.35.13.52.19.06.03.11.05.17.08h.07z" fill="#8763AA"/>
    <path d="M139.912 32.864c4.867-4.888 6.992-10.664 4.746-12.901-2.247-2.237-8.013-.088-12.881 4.8-4.867 4.888-6.992 10.663-4.746 12.9 2.246 2.237 8.013.088 12.881-4.8z" fill="#E24D6D"/>
    <path d="M133.49 24.98c1.05 6.81-.63 12.87-3.74 13.53-3.11.66-6.48-4.33-7.53-11.14-1.05-6.81.63-12.87 3.74-13.53 3.11-.66 6.48 4.33 7.53 11.14zm3.297 38.922c2.414-2.046 3.61-4.603 2.671-5.711-.939-1.108-3.657-.348-6.072 1.698-2.414 2.046-3.61 4.603-2.671 5.71.939 1.109 3.658.349 6.072-1.697z" fill="#E24D6D"/>
    <path d="M134.16 60.05c.21 3.15-.78 5.86-2.23 6.04-1.45.18-2.79-2.23-3.01-5.38-.22-3.15.78-5.86 2.23-6.04 1.45-.18 2.79 2.23 3.01 5.38z" fill="#E24D6D"/>
    <path d="M174.23 85.83c.02-.44.1-.85.28-1.24.46-1.03 1.26-1.67 2.35-1.91 1.48-.32 2.84 0 4.08.88.67.47 1.06 1.12 1.23 1.91.17.81.12 1.62-.1 2.39-.49 1.68-1.6 2.77-3.29 3.26-.36.1-.73.17-1.11.21-.21.02-.37.1-.51.27-.79.93-1.7 1.71-2.77 2.3-1.13.63-2.34.95-3.64.81-.71-.08-1.4-.25-2.04-.57-.69-.35-1.38-.69-2.06-1.06-.54-.29-1.13-.4-1.74-.42-.21 0-.38-.08-.52-.26-1.02-1.35-1.64-2.85-1.73-4.55-.06-1.07.02-2.13.15-3.18.16-1.24.45-2.46.8-3.66.23-.77.45-1.55.77-2.29.45-1.01 1.12-1.81 2.17-2.23.55-.22 1.1-.41 1.7-.47.37-.04.7.05 1.01.21.18.09.34.24.45.41.3.44.59.9.84 1.37.17.31.19.65.16.99-.02.19-.12.32-.32.36-.06.01-.09.05-.12.09a.89.89 0 01-.21.26c-.1.08-.21.14-.34.11-.11-.02-.19.02-.26.09-.11.11-.24.17-.39.2-.2.04-.4.08-.59.15-.17.06-.34.02-.49-.05-.25-.12-.44-.29-.55-.54-.02-.04-.03-.06-.08-.05-.15.04-.3.04-.45.04-.18 0-.27.09-.28.28-.05 1.29.05 2.56.62 3.75.53 1.1.79 2.25.82 3.47v.19c0 .03-.01.07.03.08.03 0 .04-.03.06-.06.15-.23.3-.45.48-.66.47-.57 1-1.05 1.69-1.34.7-.3 1.41-.34 2.15-.2.6.12 1.16.35 1.7.64.02 0 .04.01.07.03l-.02-.01zm-22.21 21.11c.17-.22.3-.44.38-.7.21-.67.12-1.3-.27-1.85-.53-.75-1.26-1.15-2.16-1.24-.48-.05-.92.1-1.32.4-.4.31-.71.71-.92 1.17-.47.99-.42 1.96.13 2.87.12.2.25.38.41.55.09.09.12.2.12.33-.03.76.06 1.5.29 2.21.25.75.65 1.39 1.28 1.86.35.25.72.45 1.13.56.45.12.89.24 1.34.34.36.08.66.27.94.51.1.08.2.12.34.09 1-.22 1.88-.67 2.61-1.44.46-.48.86-1.01 1.23-1.56.43-.65.8-1.34 1.13-2.05.21-.46.43-.91.59-1.39.21-.65.24-1.3-.05-1.93-.15-.33-.32-.64-.56-.91a1 1 0 00-.53-.31.773.773 0 00-.37.01c-.31.09-.62.18-.93.3-.2.08-.35.23-.47.4-.07.1-.08.2 0 .3.02.03.02.06.02.09-.01.07-.02.14-.01.21.01.08.04.15.11.19.06.04.08.09.08.15 0 .1.04.18.09.25.07.1.14.2.2.31.05.1.14.15.24.17.16.04.31.04.46-.03.02-.01.04-.01.05.01.05.08.12.14.18.21.08.08.08.15.01.25-.5.63-1.06 1.19-1.8 1.51-.68.3-1.27.74-1.77 1.3-.03.03-.05.06-.08.08-.01.01-.03.04-.05.02-.02-.01 0-.03 0-.05.03-.17.05-.34.06-.51.03-.46-.02-.9-.2-1.32-.19-.42-.49-.73-.87-.96-.31-.19-.65-.31-1.01-.39-.01 0-.02 0-.04-.02l-.01.01zm-125.81 19.8c.01-.23.05-.44.14-.64.24-.53.65-.87 1.22-.99.77-.17 1.47 0 2.11.45.34.24.55.58.64.99.09.42.06.84-.05 1.24-.25.87-.83 1.44-1.71 1.69-.19.05-.38.09-.57.11-.11 0-.19.05-.26.14-.41.48-.88.89-1.44 1.19-.59.32-1.21.49-1.89.42a3 3 0 01-1.06-.3c-.36-.18-.72-.36-1.07-.55-.28-.15-.59-.21-.9-.22-.11 0-.2-.04-.27-.14-.53-.7-.85-1.48-.9-2.36-.03-.55 0-1.1.08-1.65.08-.64.23-1.27.41-1.9.12-.4.23-.8.4-1.18.23-.52.58-.94 1.12-1.16.28-.12.57-.21.88-.24.19-.02.36.02.53.11.09.05.17.13.23.22.16.23.3.47.44.71.09.16.1.33.08.51 0 .1-.06.17-.16.19-.03 0-.05.02-.06.05-.03.05-.06.1-.11.13-.05.04-.11.07-.18.06-.06-.01-.1.01-.13.05a.32.32 0 01-.2.1c-.1.02-.21.04-.3.08-.09.03-.17.01-.26-.03a.513.513 0 01-.28-.28c0-.02-.02-.03-.04-.02-.08.02-.16.02-.24.02-.1 0-.14.05-.15.14-.03.67.03 1.33.32 1.94.27.57.41 1.17.42 1.8v.1c0 .02 0 .04.02.04s.02-.02.03-.03c.08-.12.16-.23.25-.34.24-.3.52-.54.88-.7.36-.15.73-.18 1.11-.1.31.06.6.18.88.33 0 0 .02 0 .04.01v.01z" fill="#129447"/>
    <path d="M160.569 20.78c1.964-1.665 2.936-3.744 2.172-4.646-.764-.902-2.975-.284-4.939 1.38-1.963 1.664-2.935 3.744-2.171 4.646.764.901 2.975.283 4.938-1.38z" fill="#E24D6D"/>
    <path d="M158.42 17.64c.17 2.57-.64 4.77-1.82 4.91-1.18.15-2.27-1.81-2.45-4.38-.18-2.57.64-4.77 1.82-4.91 1.18-.15 2.27 1.81 2.45 4.38z" fill="#E24D6D"/>
    <path d="M127.52 73.08c0 .12 0 .24-.01.36-.03.16-.05.33-.08.49-.06.15-.11.29-.18.43-.08.14-.17.28-.27.41-.12.13-.25.23-.41.31-.04.02-.08.03-.12.05a.92.92 0 01-.52 0c-.16-.06-.29-.15-.42-.25a3.8 3.8 0 01-.33-.37c-.05-.08-.11-.16-.16-.24-.04-.07-.08-.15-.13-.22-.09-.17-.17-.35-.26-.52-.09-.17-.18-.33-.31-.48-.1-.13-.21-.25-.35-.33a.906.906 0 00-.45-.16c-.2-.03-.39 0-.57.08-.02 0-.03 0-.05.02-.16.07-.29.17-.39.32-.1.12-.17.27-.2.42-.03.1-.03.2.06.27.11.08.24.05.31-.08.03-.16.09-.32.2-.44.03-.02.05-.04.08-.06.26-.19.53-.17.8-.02.04.03.07.06.11.09.08.1.16.2.23.3.09.16.17.31.26.47 0 .01 0 .02.01.03.08.17.16.34.26.49.17.3.38.58.66.79.13.1.26.2.42.25.16.08.33.1.5.09.05 0 .1 0 .15-.01.29-.04.53-.17.76-.36v.19c-.02.24-.05.48-.14.7-.03.09-.07.17-.11.26-.06.1-.13.2-.19.29l-.07.1c-.11.12-.23.24-.36.34-.15.11-.32.19-.48.29h-.04c-.36.15-.73.19-1.11.13-.16-.03-.31-.07-.46-.13-.15-.06-.29-.14-.43-.23-.13-.09-.25-.19-.37-.3-.09-.09-.18-.18-.26-.28-.03-.04-.04-.08-.09-.1v-.04c-.11-.15-.19-.32-.26-.49-.02-.07-.04-.13-.07-.2-.02-.12-.05-.24-.07-.35 0-.04-.02-.07-.05-.1-.07-.08-.15-.1-.24-.06-.11.05-.14.13-.1.27 0 .11.03.21.07.32.02.12.06.23.12.34.03.09.07.18.12.26.08.16.17.31.29.45.02.04.05.07.09.1.07.1.16.18.26.26.03.04.07.07.11.09.04.03.05.05.02.09-.04.07-.07.14-.11.22-.08.14-.16.28-.23.43-.02.04-.05.07-.06.11-.06.14-.17.2-.32.18a.324.324 0 01-.18-.2c-.03-.08-.07-.16-.11-.24a6.52 6.52 0 00-.12-.26c-.04-.1-.08-.19-.13-.28-.07-.16-.14-.33-.21-.49-.09-.19-.19-.38-.32-.54-.2-.28-.45-.49-.75-.66-.14-.07-.28-.15-.41-.22-.14-.07-.28-.15-.41-.22-.14-.08-.29-.15-.43-.23l-.41-.22-.31-.17c.37-.05.71-.15 1.01-.37.09-.05.17-.12.25-.2.06-.05.11-.1.15-.16.11-.11.2-.25.28-.38.08-.14.16-.29.2-.44.06-.14.09-.28.11-.43 0-.01 0-.02.01-.03.03-.16.06-.33.07-.49l.09-.5c.05-.15.09-.3.16-.44.07-.15.18-.27.3-.39.14-.11.3-.21.47-.28.2-.06.4-.09.6-.08.09.01.18.06.27 0 .1-.05.13-.12.11-.22-.02-.1-.09-.16-.21-.17-.01 0-.02-.01-.03-.01-.62-.07-1.16.11-1.6.56a1.3 1.3 0 00-.27.39c-.09.14-.14.29-.18.45-.05.16-.08.31-.1.48-.02.08-.03.17-.04.26-.02.08-.03.17-.04.26-.04.16-.06.33-.11.49-.04.15-.12.29-.19.43-.08.13-.17.25-.27.36-.11.1-.22.2-.34.28-.03.02-.06.03-.09.05-.05.02-.11.05-.16.07-.3.12-.6.14-.92.08-.15-.04-.3-.09-.45-.16-.14-.08-.28-.16-.41-.26l-.36-.33c-.05-.07-.11-.13-.17-.19-.05-.07-.11-.14-.16-.21-.1-.15-.2-.31-.28-.48 0-.02-.02-.04-.03-.07-.06-.2-.11-.39-.15-.6v-.03c-.02-.19-.02-.37-.02-.56.03-.32.11-.63.24-.93.07-.14.15-.27.23-.41.03-.05.07-.1.1-.14.07-.08.15-.16.22-.24.13-.12.26-.22.4-.32.1-.07.21-.11.3-.19.07 0 .13-.05.19-.07.15-.06.31-.1.47-.14.07-.01.14-.03.22-.04l.33-.03h.09c.14 0 .28 0 .42.03 0 .01-.02.02-.03.03-.09.08-.17.17-.24.27-.11.12-.2.25-.28.38-.08.13-.16.27-.21.42-.07.16-.12.33-.14.5-.02.03-.02.07-.01.1-.02.13-.03.26 0 .39 0 .09.01.17.03.25.02.07.06.12.14.13.14.04.24-.03.26-.18 0-.08-.02-.16-.03-.24v-.27c.03-.16.07-.33.12-.48l.21-.42c.09-.14.19-.27.29-.4.12-.11.23-.23.35-.34.02-.02.04-.03.06-.05.13-.09.26-.18.39-.26.12-.06.25-.12.37-.18l.18-.06.46-.11c.08 0 .16-.02.24-.05.11.02.21 0 .32-.01.35 0 .69.03 1.03.09.15.05.3.09.46.14.15.06.3.13.45.19l.41.23c.14.09.26.2.38.32.06.07.11.14.17.21.04.08.09.16.13.24.05.13.09.27.11.41.01.17 0 .33-.07.49-.07.15-.17.27-.3.37-.15.1-.32.16-.49.19h-.17c-.1.01-.17.08-.18.17-.01.1.03.17.13.22.03.03.07.02.12.02.35 0 .65-.12.93-.33.03.08.04.16.08.23 0 .02.02.05.03.07.14.29.35.51.66.63.09.05.18.08.29.09.05.02.1.02.15.03.13.01.23-.06.24-.18.01-.11-.07-.21-.19-.23-.09-.01-.18-.03-.27-.05-.16-.06-.28-.16-.4-.28l-.09-.15c-.06-.14-.1-.3-.11-.45v-.16c.03-.16.08-.32.07-.48.02-.16 0-.31-.05-.46 0-.04 0-.07-.03-.11-.03-.13-.09-.25-.16-.38.13.06.21.16.32.23.11.1.23.2.34.3.25.25.48.52.69.8.22.32.4.66.55 1.02 0 .02 0 .04.02.05.06.19.12.37.17.56 0 .03 0 .05.02.07.03.19.05.38.08.57 0 .06 0 .13.01.19l.01-.03z" fill="#8763AA"/>
  </g>
</svg>
