<svg xmlns="http://www.w3.org/2000/svg" data-name="Layer 1" viewBox="0 0 146.75 212.49">
  <ellipse cx="74.83" cy="207.04" fill="#e85680" opacity=".41" rx="71.92" ry="5.45"/>
  <path fill="#262c97" d="M69.71 69.84c.37-3.54 4.1-29.07 9.69-33.82s7.19-1.98 7.19-1.98l1.28 1.98-13.88 35.41-4.29-1.58Z"/>
  <g fill="#262c97">
    <path d="M102.81 139.24c-5.57 2.06-11.36 2.6-17.36 1.6-.37-.05-.74-.11-1.11-.17-.16 3.75-.57 8.37-.08 13.9 1.84 21.18 2.56 37.45 1.15 38.71-.33.29.16 3.28-.95 3.92 4.41-.2 8.82-.39 13.23-.44-.21-.17-1.56-1.35-1.27-2.95.31-1.73 7.34-17.4 7.93-34.62.52-15.2-1.88-19.2-1.88-19.2l.35-.75Z"/>
    <path d="M97.35 190.95c-3.4 3.53-6.99 2.94-10.68 0l-1.01-1.98-9.9 4.45-1.43.32c-8.25 1.26-11.91 4.15-11.71 9.21h38.17c0-2.77.56-9.01-3.44-12.01Z"/>
  </g>
  <path fill="#ffc7e0" stroke="#262c97" stroke-miterlimit="10" stroke-width=".5" d="M106.27 142.86c-5.57 2.06-11.36 2.6-17.36 1.6-.37-.05-.74-.11-1.11-.17-.16 3.75-.57 8.37-.08 13.9 1.84 21.18 4.54 39.92 3.13 41.18-.33.29-1.82.81-2.94 1.45 4.41-.2 8.82-.39 13.23-.44-.21-.17-1.56-1.35-1.27-2.95.31-1.73 7.34-17.4 7.93-34.62.52-15.2-1.88-19.2-1.88-19.2z"/>
  <path fill="#4f6abd" d="M104.02 85.31c5.71 8.25 6.13 10.15 6.34 23.68s2.84 36.24 2.84 36.24c-7.81 3.99-20.39 5.73-29.27 2.03l-.42-4.44-6.55-1.06c-2.33-16.46-1.25-35.31 1.27-55.18z"/>
  <path fill="#262c97" d="M81.29 105.39c3.31-.95 9.44-2.48 13.4-5.39 4.29-3.15 6.22-9.17 7.06-14.58l-4.04.2-1.55 3.79-19.44 10.87c-.02.17-.03.35-.05.52l.82 4.59 4.85 37.24 1.16.19c.5-.18-2.82-37.25-2.22-37.42Z"/>
  <path fill="#ffc7e0" stroke="#262c97" stroke-miterlimit="10" stroke-width=".5" d="m82.85 17.74 5.28 14.09 7.48 6.61-16.14 8.81 1.72-9.72-3.62-14.03z"/>
  <path fill="#ffc7e0" d="M82.85 18.38c.58 3.64-1.79 9.22-5.81 8.96s-8.21-8.23-8.36-13.84c-.16-5.62 6.86-6.02 6.86-6.02l3.53 4.6z"/>
  <path fill="none" stroke="#262c97" stroke-miterlimit="10" stroke-width=".5" d="M81.73 24.21c-1.02 1.87-2.64 3.26-4.69 3.12-4.02-.26-8.21-8.23-8.36-13.84-.16-5.62 6.86-6.02 6.86-6.02l3.53 4.6 3.78 6.3"/>
  <path fill="none" stroke="#262c97" stroke-linecap="round" stroke-linejoin="round" stroke-width=".5" d="m73.21 15.98.66 1.76"/>
  <path fill="#e85680" d="M74.18 20.72c.32.41 1.1.34 1.73-.16s.88-1.23.55-1.64c-.32-.41-1.1-.34-1.73.16s-.88 1.23-.55 1.64" opacity=".41"/>
  <path fill="none" stroke="#262c97" stroke-linecap="round" stroke-miterlimit="10" stroke-width=".5" d="M70.38.48c3.57-.88 9.18.63 12.19 6.85 2.08 4.29.58 7.42-.61 8.89m-9.65-2.66c-4.44.98-8.16-1.54-8.12-5.22s3.55.58 3.55.58z"/>
  <path fill="#262c97" d="M76.88 11c-1.95 3.05-8.63 4.49-10.85.58S64.67-1.12 72.74.23s11.94 10.83 10.73 13.39c-1.22 2.56-3.94 1.83-3.94 1.83L76.9 11Z"/>
  <path fill="#ffc7e0" d="M80.45 16.07c.82-2.99 3.3-4.08 4.33-2.78 1.02 1.3.73 5.15-2.24 5.72l-2.09-2.93Z"/>
  <path fill="none" stroke="#262c97" stroke-miterlimit="10" stroke-width=".5" d="M80.45 16.07c.82-2.99 3.3-4.08 4.33-2.78 1.02 1.3.73 5.15-2.24 5.72"/>
  <path fill="#ffc7e0" stroke="#262c97" stroke-miterlimit="10" stroke-width=".5" d="m82.25 16.18 2.53-2.9"/>
  <path fill="#e85680" d="M80.91 39.13s9.27-4.63 8.92-5.79c0 0 7.07 4.2 9.86 9.16 8.14 14.48 7.93 32.67 8.14 37.74s-.42 8.03-4.44 10.57-22.69 4.91-29.16-4.44c-5.44-7.86 1.62-42.42 6.68-47.23Z"/>
  <path fill="none" stroke="#262c97" stroke-miterlimit="10" stroke-width=".5" d="M101.2 47.25c3.26 9.39 3.26 18.77 3.26 18.77l-19.52-1.96"/>
  <path fill="#262c97" d="m96.17 89.4-6.49 3.63c3.93.18 7.73-.29 10.45-.99 2.87-7.94 2.19-17.64 2.19-17.64z"/>
  <g fill="#262c97">
    <path d="M77.12 143.2c-1.98 11.61-21.51 45.93-22.17 47.25s-.53 7.74-.53 7.74l-11.75 1.23s5.94-28.37 13.59-49.49 20.85-6.73 20.85-6.73Z"/>
    <path d="M65.77 200.05c-3.03.82-5.45-.47-9.41-1.72-2.76-.87-6.72-3.82-6.72-3.82.63-1.3 2.21-3.25 4.04-2.4 4.12 2.62 7.05 4.73 11.72 5.33l.37 2.62Z"/>
    <path d="m73.39 203.84-33.19.1.51-3.77 23.36 1.01 1.32-3.75c5.39.96 9.22 2.83 8 6.41"/>
  </g>
  <path fill="#ffc7e0" stroke="#262c97" stroke-miterlimit="10" stroke-width=".5" d="M71.51 144.6c-1.98 11.61-21.51 45.93-22.17 47.25s-.53 7.74-.53 7.74l-11.75 1.23s5.94-28.37 13.59-49.49 20.85-6.73 20.85-6.73Z"/>
  <path fill="#e85680" d="M38.09 195.9c4.52 2.06 8.09 2.28 10.11-.48 0 0 7.11 2.62 11.58 3.42 6.5 1.16 8.5 5.29 7.46 5.77-9.82-.35-17.52.93-32.21-.04.2-1.9-.75-5.48 3.06-8.66Z"/>
  <path fill="#e85680" d="M60.16 201.46c-3.03.82-5.45-.47-9.41-1.72-2.76-.87-6.72-3.82-6.72-3.82.63-1.3 2.21-3.25 4.04-2.4 4.12 2.62 7.05 4.73 11.72 5.33l.37 2.62Z"/>
  <path fill="#fff" d="m67.78 205.25-33.19.1.51-3.77 23.36 1.01 1.32-3.75c5.39.96 9.22 2.83 8 6.41"/>
  <path fill="none" stroke="#262c97" stroke-miterlimit="10" stroke-width=".5" d="M55.81 201.37c-.08-1.15.28-2.36 1.1-3.61m-4.57 3.02c.2-1.73.78-3.19 2.05-4.14m-5.46 2.59c.39-1.67 1.27-3.04 2.75-4.04"/>
  <path fill="#ffc7e0" stroke="#262c97" stroke-miterlimit="10" stroke-width=".5" d="m41.64 37.48 2.55 11.61s3.96 4.4 7.3 7.3-12.76 10.21-13.02 9.77-6.62-16.45-6.62-16.45l3.62-16.95 6.78-.68-.62 5.41Z"/>
  <path fill="#fff" d="M41.32 52.42c-6.47 4.93.81 24.22 5.34 38.07C51.19 104.35 24 162.41 24 162.41s18.74 3.66 44.87-9.77c13.61-6.99 13.48-10.02 13.48-10.02s-5.16-49.34-9.78-58.73c-4.62-9.38-23.68-29.92-23.68-29.92s-3.84-4.4-7.57-1.56Z"/>
  <path fill="#262c97" d="M49.37 101.84c9.35 5.33 28.13 3.56 28.13 3.56l-.9-5.04z"/>
  <path fill="none" stroke="#262c97" stroke-miterlimit="10" stroke-width=".5" d="M24.76 157.93c12.16 3.21 43.08-6.07 57.6-18.69"/>
  <g stroke="#262c97" stroke-width=".5">
    <path fill="#ffc7e0" stroke-miterlimit="10" d="M71.57 68.77c-2.05 5.08-23.74-25.13-29.67-19.64-5.06 4.69 3.74 19.72 11.27 26.18 10.96 9.41 23.25 15.39 26.96 8.59 3.82-6.98 3.38-38.28 6.42-40.66s4.75-2.11 6.73-1.98 3.83 1.19 3.83 1.19c.32-.77-.44-1.78-2.07-2.99 0 0 3.39 2.14 4.64 3.03 1.25.88.73-3.99-4.99-6.73-5.72-2.75-10.06-.67-12.59 3.06-3.93 5.81-9.47 27.3-10.54 29.95Z"/>
    <path fill="none" stroke-linecap="round" stroke-linejoin="round" d="M91.18 38.82c1.06-.06 2.7-.1 3.87.64"/>
  </g>
  <path fill="#ffc7e0" d="M42.21 24.08c3.18 1.54 6.27 7.46 6.59 11.76.36 4.94-6.46 5.56-10.32-.32-1.6-2.44-1.44-6.95 0-9.01 1.43-2.06 3.73-2.43 3.73-2.43"/>
  <path fill="none" stroke="#262c97" stroke-miterlimit="10" stroke-width=".5" d="M38.49 35.52c-1.6-2.44-1.44-6.95 0-9.01 1.43-2.06 3.73-2.43 3.73-2.43 3.18 1.54 5.65 6.59 6.59 11.76.67 3.69-4.67 5.16-8.66 1.61"/>
  <path fill="#e85680" d="M45.64 32.98c.04.52-.58.99-1.38 1.05s-1.48-.32-1.52-.84.58-.99 1.38-1.05 1.48.32 1.52.84" opacity=".41"/>
  <path fill="none" stroke="#262c97" stroke-linecap="round" stroke-linejoin="round" stroke-width=".5" d="m43.01 28.67.87 1.66"/>
  <path fill="#68283d" d="M37.53 31.35c2.33-1.19 1.78-3.75 2.5-4.27.73-.53 7.47-.34 6.6-5.34-.73-4.18-5.48-3.99-7.54-1.52 0 0-5.59-5.08-13.05 2.11s-1.52 14.71-2.97 19.86S6.18 54.07 8.95 70.04s22.44 17.92 29.56 8.56c3.38-4.45 4.16-10.32 4.46-14.26 1.23-16.65-6.69-24.79-5.44-32.99"/>
  <path fill="none" stroke="#68283d" stroke-linecap="round" stroke-miterlimit="10" stroke-width=".5" d="M39.97 19.82c1.37-1.11 5.23-2.48 6.96.27 1.4 2.23.2 5.1-3.05 5.25M6.71 68.19c.4-10.29 7.03-16.4 14.67-23.31s6.26-8.23 6.26-8.23m12.07 8.85c7.01 12.97 6.61 33.66-8.38 37.68"/>
  <path fill="#ffc7e0" d="M39.1 35.02s-3.35 1.97-6.04 0c-2.69-1.96-.24-4.04 1.25-4.34 1.81-.36 3.51.83 3.51.83l1.28 3.5Z"/>
  <path fill="none" stroke="#262c97" stroke-miterlimit="10" stroke-width=".5" d="M39.1 35.02s-3.56 2.22-6.04 0c-1.92-1.72-.76-4.09 1.25-4.34 1.83-.23 3.51.83 3.51.83"/>
  <path fill="#ffc7e0" stroke="#262c97" stroke-miterlimit="10" stroke-width=".5" d="m32.53 31.68 4.32.78"/>
  <path fill="#ffc7e0" d="M86.98 64.51c1.74.3 9.86.93 15.51 1.55 0 0 .98 24.9-8.05 30.23-13.25 7.83-26.62 7.12-36.39 6.86s-14.75-4-14.48-4.36c.27-.35 4.76.97 5.81.7 1.06-.26-3.98-3.71-4.73-8.23-.73-4.36.28-5.98.28-5.98s2.68 4.19 6.47 5.32c2.32.69 1.77.18 1.77.18s-3.94-5.93-2.88-6.56 4.04 3.03 8.59 6.56c3.77 2.93 26.13-1.14 27.89-5.01s.2-21.27.2-21.27Z"/>
  <path fill="none" stroke="#262c97" stroke-linecap="round" stroke-linejoin="round" stroke-width=".5" d="M44.44 87.32c1.67 3.69 7.93 7.06 7.93 7.06m-7.71-3.1c1.85 2.71 4.16 4.55 6.47 5.87"/>
  <path fill="none" stroke="#262c97" stroke-miterlimit="10" stroke-width=".5" d="M102.45 65.84s1.02 25.13-8.02 30.46c-13.25 7.83-26.62 7.12-36.39 6.86s-14.75-4-14.48-4.36c.27-.35 4.76.97 5.81.7 1.06-.26-3.98-3.71-4.73-8.23-.73-4.36.28-5.98.28-5.98s2.68 4.19 6.47 5.32c2.32.69 1.77.18 1.77.18s-3.94-5.93-2.88-6.56 4.04 3.03 8.59 6.56c3.77 2.93 26.13-1.14 27.89-5.01s.17-21.5.17-21.5"/>
  <path fill="#fff" d="M100.17 197.51c.17-.97 2.65-6.88 4.75-14.6-4.58-.32-10.58-1.49-15.59-2.88.77 10.85 1.76 18.54.87 19.33-.1.09-.25.2-.43.32 1.67.23 11.37.69 11.37.69-.21-.17-1.26-1.27-.97-2.87Z"/>
  <path fill="none" stroke="#262c97" stroke-miterlimit="10" stroke-width=".5" d="m89.74 180.85 1.15 3.77 2.45-2.8 1.56 3.78 2.05-2.87 1.59 3.15 2.01-2.52 1.77 3.28 1.92-2.89"/>
  <path fill="#68283d" d="M101.09 194.79c-3.4 3.53-7.27 2.71-10.97-.23l-1.01-1.98-9.9 4.45-1.43.32c-8.25 1.26-11.91 4.15-11.71 9.21h38.17c0-2.77.85-8.78-3.16-11.79Z"/>
  <path fill="#fff" d="M104.09 201.14c-1.57.79-2.09 2.71-2.09 2.71s-27.02 1.01-35.64.18c-.22.78-.32 1.63-.28 2.55h38.17c0-1.29.12-3.33-.15-5.44Z"/>
  <path fill="#e85680" d="M105.23 14.02s-1.76-5.27-3.41-1.47c-1.01 2.34.74 7.83.74 7.83s6.92-3.53 6.44-6.89c-.29-2.01-3.77.54-3.77.54ZM3.73 16.73s-.39-5.54 2.58-2.66c1.83 1.77 2.31 7.51 2.31 7.51s-7.74-.62-8.58-3.9c-.5-1.97 3.69-.95 3.69-.95"/>
</svg>
